IBM Plex Sans Var-Condensed.ufo
<glyph name="E" format="2">
	<advance width="526"/>
	<unicode hex="0045"/>
	<anchor x="274" y="0" name="bottom"/>
	<anchor x="469" y="0" name="bottomright"/>
	<anchor x="274" y="698" name="top"/>
	<outline>
		<contour>
			<point x="469" y="0" type="line" name="hr00"/>
			<point x="469" y="70" type="line"/>
			<point x="163" y="70" type="line"/>
			<point x="163" y="318" type="line"/>
			<point x="450" y="318" type="line"/>
			<point x="450" y="388" type="line"/>
			<point x="163" y="388" type="line"/>
			<point x="163" y="628" type="line"/>
			<point x="469" y="628" type="line"/>
			<point x="469" y="698" type="line"/>
			<point x="83" y="698" type="line"/>
			<point x="83" y="0" type="line"/>
		</contour>
	</outline>
</glyph>
<glyph name="H" format="2">
	<advance width="637"/>
	<unicode hex="0048"/>
	<anchor x="319" y="0" name="bottom"/>
	<anchor x="319" y="698" name="top"/>
	<outline>
		<contour>
			<point x="474" y="0" type="line" name="hr00"/>
			<point x="554" y="0" type="line"/>
			<point x="554" y="698" type="line"/>
			<point x="474" y="698" type="line"/>
			<point x="474" y="388" type="line"/>
			<point x="163" y="388" type="line"/>
			<point x="163" y="698" type="line"/>
			<point x="83" y="698" type="line"/>
			<point x="83" y="0" type="line"/>
			<point x="163" y="0" type="line"/>
			<point x="163" y="318" type="line"/>
			<point x="474" y="318" type="line"/>
		</contour>
	</outline>
</glyph>
<glyph name="I" format="2">
	<advance width="362"/>
	<unicode hex="0049"/>
	<anchor x="181" y="0" name="bottom"/>
	<anchor x="309" y="0" name="bottomright"/>
	<anchor x="181" y="698" name="top"/>
	<outline>
		<contour>
			<point x="309" y="0" type="line" name="hr00"/>
			<point x="309" y="66" type="line"/>
			<point x="221" y="66" type="line"/>
			<point x="221" y="632" type="line"/>
			<point x="309" y="632" type="line"/>
			<point x="309" y="698" type="line"/>
			<point x="53" y="698" type="line"/>
			<point x="53" y="632" type="line"/>
			<point x="141" y="632" type="line"/>
			<point x="141" y="66" type="line"/>
			<point x="53" y="66" type="line"/>
			<point x="53" y="0" type="line"/>
		</contour>
	</outline>
</glyph>
<glyph name="N" format="2">
	<advance width="637"/>
	<unicode hex="004E"/>
	<anchor x="318" y="0" name="bottom"/>
	<anchor x="318" y="698" name="top"/>
	<outline>
		<contour>
			<point x="457" y="0" type="line" name="hr00"/>
			<point x="555" y="0" type="line"/>
			<point x="555" y="698" type="line"/>
			<point x="477" y="698" type="line"/>
			<point x="477" y="245" type="line"/>
			<point x="484" y="101" type="line"/>
			<point x="474" y="101" type="line"/>
			<point x="413" y="245" type="line"/>
			<point x="181" y="698" type="line"/>
			<point x="83" y="698" type="line"/>
			<point x="83" y="0" type="line"/>
			<point x="161" y="0" type="line"/>
			<point x="161" y="453" type="line"/>
			<point x="154" y="597" type="line"/>
			<point x="164" y="597" type="line"/>
			<point x="225" y="453" type="line"/>
		</contour>
	</outline>
</glyph>
<glyph name="T" format="2">
	<advance width="516"/>
	<unicode hex="0054"/>
	<anchor x="258" y="0" name="bottom"/>
	<anchor x="258" y="698" name="top"/>
	<outline>
		<contour>
			<point x="495" y="628" type="line" name="hr00"/>
			<point x="495" y="698" type="line"/>
			<point x="21" y="698" type="line"/>
			<point x="21" y="628" type="line"/>
			<point x="218" y="628" type="line"/>
			<point x="218" y="0" type="line"/>
			<point x="298" y="0" type="line"/>
			<point x="298" y="628" type="line"/>
		</contour>
	</outline>
</glyph>
<glyph name="Z" format="2">
	<advance width="524"/>
	<unicode hex="005A"/>
	<anchor x="268" y="0" name="bottom"/>
	<anchor x="268" y="698" name="top"/>
	<outline>
		<contour>
			<point x="491" y="70" type="line" name="hr00"/>
			<point x="120" y="70" type="line"/>
			<point x="479" y="626" type="line"/>
			<point x="479" y="698" type="line"/>
			<point x="49" y="698" type="line"/>
			<point x="49" y="628" type="line"/>
			<point x="392" y="628" type="line"/>
			<point x="33" y="72" type="line"/>
			<point x="33" y="0" type="line"/>
			<point x="491" y="0" type="line"/>
		</contour>
	</outline>
</glyph>
<glyph name="i" format="2">
	<advance width="228"/>
	<unicode hex="0069"/>
	<anchor x="114" y="0" name="bottom"/>
	<anchor x="152" y="0" name="bottomright"/>
	<outline>
		<contour>
			<point x="114" y="641" type="curve" smooth="yes"/>
			<point x="147" y="641"/>
			<point x="161" y="656"/>
			<point x="161" y="682" type="curve" smooth="yes"/>
			<point x="161" y="698" type="line" smooth="yes"/>
			<point x="161" y="724"/>
			<point x="147" y="739"/>
			<point x="114" y="739" type="curve" smooth="yes"/>
			<point x="81" y="739"/>
			<point x="67" y="724"/>
			<point x="67" y="698" type="curve" smooth="yes"/>
			<point x="67" y="682" type="line" smooth="yes"/>
			<point x="67" y="656"/>
			<point x="81" y="641"/>
		</contour>
		<contour>
			<point x="76" y="0" type="line" name="hr01"/>
			<point x="152" y="0" type="line"/>
			<point x="152" y="516" type="line"/>
			<point x="76" y="516" type="line"/>
		</contour>
	</outline>
</glyph>
<glyph name="x" format="2">
	<advance width="459"/>
	<unicode hex="0078"/>
	<anchor x="230" y="0" name="bottom"/>
	<anchor x="230" y="540" name="top"/>
	<outline>
		<contour>
			<point x="19" y="0" type="line"/>
			<point x="102" y="0" type="line" name="hr00"/>
			<point x="227" y="202" type="line"/>
			<point x="237" y="202" type="line"/>
			<point x="356" y="0" type="line"/>
			<point x="442" y="0" type="line"/>
			<point x="275" y="266" type="line"/>
			<point x="437" y="516" type="line"/>
			<point x="354" y="516" type="line"/>
			<point x="237" y="328" type="line"/>
			<point x="227" y="328" type="line"/>
			<point x="112" y="516" type="line"/>
			<point x="26" y="516" type="line"/>
			<point x="189" y="263" type="line"/>
		</contour>
	</outline>
</glyph>
<glyph name="macron" format="2">
	<advance width="540"/>
	<unicode hex="00AF"/>
	<anchor x="270" y="540" name="_top"/>
	<outline>
		<contour>
			<point x="143" y="639" type="line" name="hr00"/>
			<point x="397" y="639" type="line"/>
			<point x="397" y="703" type="line"/>
			<point x="143" y="703" type="line"/>
		</contour>
	</outline>
</glyph>
<glyph name="acute" format="2">
	<advance width="540"/>
	<unicode hex="00B4"/>
	<anchor x="270" y="540" name="_top"/>
	<outline>
		<contour>
			<point x="374" y="743" type="line" name="hr00"/>
			<point x="305" y="779" type="line"/>
			<point x="228" y="610" type="line"/>
			<point x="277" y="585" type="line"/>
		</contour>
	</outline>
</glyph>
<glyph name="dotlessi" format="2">
	<advance width="228"/>
	<unicode hex="0131"/>
	<anchor x="114" y="540" name="top"/>
	<outline>
		<contour>
			<point x="152" y="0" type="line" name="hr00"/>
			<point x="152" y="516" type="line"/>
			<point x="76" y="516" type="line"/>
			<point x="76" y="0" type="line"/>
		</contour>
	</outline>
</glyph>
<glyph name="tonos" format="2">
	<advance width="539"/>
	<unicode hex="0384"/>
	<anchor x="280" y="540" name="_top"/>
	<outline>
		<contour>
			<point x="351" y="768" type="line"/>
			<point x="276" y="779" type="line"/>
			<point x="249" y="592" type="line"/>
			<point x="303" y="585" type="line"/>
		</contour>
	</outline>
</glyph>
<glyph name="dieresistonos" format="2">
	<advance width="540"/>
	<unicode hex="0385"/>
	<anchor x="268" y="540" name="_top"/>
	<outline>
		<contour>
			<point x="380" y="619" type="curve" smooth="yes"/>
			<point x="408" y="619"/>
			<point x="422" y="637"/>
			<point x="422" y="664" type="curve" smooth="yes"/>
			<point x="422" y="675" type="line" smooth="yes"/>
			<point x="422" y="702"/>
			<point x="407" y="719"/>
			<point x="380" y="719" type="curve" smooth="yes"/>
			<point x="352" y="719"/>
			<point x="338" y="701"/>
			<point x="338" y="675" type="curve" smooth="yes"/>
			<point x="338" y="664" type="line" smooth="yes"/>
			<point x="338" y="637"/>
			<point x="352" y="619"/>
		</contour>
		<contour>
			<point x="165" y="619" type="curve" smooth="yes"/>
			<point x="193" y="619"/>
			<point x="207" y="637"/>
			<point x="207" y="664" type="curve" smooth="yes"/>
			<point x="207" y="675" type="line" smooth="yes"/>
			<point x="207" y="702"/>
			<point x="192" y="719"/>
			<point x="165" y="719" type="curve" smooth="yes"/>
			<point x="137" y="719"/>
			<point x="123" y="701"/>
			<point x="123" y="675" type="curve" smooth="yes"/>
			<point x="123" y="664" type="line" smooth="yes"/>
			<point x="123" y="637"/>
			<point x="137" y="619"/>
		</contour>
		<contour>
			<point x="325" y="768" type="line"/>
			<point x="259" y="779" type="line"/>
			<point x="232" y="592" type="line"/>
			<point x="277" y="585" type="line"/>
		</contour>
	</outline>
</glyph>
<glyph name="Theta" format="2">
	<advance width="639"/>
	<unicode hex="0398"/>
	<outline>
		<contour>
			<point x="320" y="-12" type="curve" smooth="yes"/>
			<point x="482" y="-12"/>
			<point x="587" y="115"/>
			<point x="587" y="349" type="curve" smooth="yes"/>
			<point x="587" y="583"/>
			<point x="482" y="710"/>
			<point x="320" y="710" type="curve" smooth="yes"/>
			<point x="157" y="710"/>
			<point x="52" y="583"/>
			<point x="52" y="349" type="curve" smooth="yes"/>
			<point x="52" y="115"/>
			<point x="157" y="-12"/>
		</contour>
		<contour>
			<point x="320" y="60" type="curve" smooth="yes"/>
			<point x="213" y="60"/>
			<point x="138" y="151"/>
			<point x="138" y="293" type="curve" smooth="yes"/>
			<point x="138" y="405" type="line" smooth="yes"/>
			<point x="138" y="547"/>
			<point x="213" y="638"/>
			<point x="320" y="638" type="curve" smooth="yes"/>
			<point x="426" y="638"/>
			<point x="501" y="547"/>
			<point x="501" y="405" type="curve" smooth="yes"/>
			<point x="501" y="293" type="line" smooth="yes"/>
			<point x="501" y="151"/>
			<point x="426" y="60"/>
		</contour>
		<contour>
			<point x="451" y="317" type="line"/>
			<point x="451" y="389" type="line"/>
			<point x="188" y="389" type="line"/>
			<point x="188" y="317" type="line"/>
		</contour>
	</outline>
</glyph>
<glyph name="Lambda" format="2">
	<advance width="568"/>
	<unicode hex="039B"/>
	<outline>
		<contour>
			<point x="233" y="698" type="line"/>
			<point x="20" y="0" type="line"/>
			<point x="102" y="0" type="line"/>
			<point x="204" y="353" type="line"/>
			<point x="280" y="623" type="line"/>
			<point x="284" y="623" type="line"/>
			<point x="361" y="353" type="line"/>
			<point x="464" y="0" type="line"/>
			<point x="548" y="0" type="line"/>
			<point x="335" y="698" type="line"/>
		</contour>
	</outline>
</glyph>
<glyph name="Xi" format="2">
	<advance width="527"/>
	<unicode hex="039E"/>
	<outline>
		<contour>
			<point x="57" y="627" type="line"/>
			<point x="470" y="627" type="line"/>
			<point x="470" y="698" type="line"/>
			<point x="57" y="698" type="line"/>
		</contour>
		<contour>
			<point x="95" y="317" type="line"/>
			<point x="433" y="317" type="line"/>
			<point x="433" y="389" type="line"/>
			<point x="95" y="389" type="line"/>
		</contour>
		<contour>
			<point x="57" y="0" type="line"/>
			<point x="470" y="0" type="line"/>
			<point x="470" y="71" type="line"/>
			<point x="57" y="71" type="line"/>
		</contour>
	</outline>
</glyph>
<glyph name="Sigma" format="2">
	<advance width="514"/>
	<unicode hex="03A3"/>
	<outline>
		<contour>
			<point x="461" y="0" type="line"/>
			<point x="461" y="71" type="line"/>
			<point x="129" y="71" type="line"/>
			<point x="353" y="354" type="line"/>
			<point x="140" y="627" type="line"/>
			<point x="461" y="627" type="line"/>
			<point x="461" y="698" type="line"/>
			<point x="43" y="698" type="line"/>
			<point x="43" y="625" type="line"/>
			<point x="257" y="352" type="line"/>
			<point x="36" y="73" type="line"/>
			<point x="36" y="0" type="line"/>
		</contour>
	</outline>
</glyph>
<glyph name="Phi" format="2">
	<advance width="767"/>
	<unicode hex="03A6"/>
	<outline>
		<contour>
			<point x="343" y="-29" type="line"/>
			<point x="424" y="-29" type="line"/>
			<point x="424" y="31" type="line"/>
			<point x="440" y="31" type="line" smooth="yes"/>
			<point x="620" y="31"/>
			<point x="719" y="170"/>
			<point x="719" y="354" type="curve" smooth="yes"/>
			<point x="719" y="538"/>
			<point x="620" y="677"/>
			<point x="440" y="677" type="curve" smooth="yes"/>
			<point x="424" y="677" type="line"/>
			<point x="424" y="725" type="line"/>
			<point x="343" y="725" type="line"/>
			<point x="343" y="677" type="line"/>
			<point x="328" y="677" type="line" smooth="yes"/>
			<point x="147" y="677"/>
			<point x="48" y="538"/>
			<point x="48" y="354" type="curve" smooth="yes"/>
			<point x="48" y="170"/>
			<point x="147" y="31"/>
			<point x="328" y="31" type="curve" smooth="yes"/>
			<point x="343" y="31" type="line"/>
		</contour>
		<contour>
			<point x="345" y="99" type="line"/>
			<point x="328" y="99" type="line" smooth="yes"/>
			<point x="210" y="99"/>
			<point x="134" y="197"/>
			<point x="134" y="323" type="curve" smooth="yes"/>
			<point x="134" y="385" type="line" smooth="yes"/>
			<point x="134" y="511"/>
			<point x="210" y="609"/>
			<point x="328" y="609" type="curve" smooth="yes"/>
			<point x="345" y="609" type="line"/>
		</contour>
		<contour>
			<point x="422" y="99" type="line"/>
			<point x="422" y="609" type="line"/>
			<point x="439" y="609" type="line" smooth="yes"/>
			<point x="557" y="609"/>
			<point x="634" y="512"/>
			<point x="634" y="385" type="curve" smooth="yes"/>
			<point x="634" y="323" type="line" smooth="yes"/>
			<point x="634" y="196"/>
			<point x="557" y="99"/>
			<point x="439" y="99" type="curve" smooth="yes"/>
		</contour>
	</outline>
</glyph>
<glyph name="Psi" format="2">
	<advance width="715"/>
	<unicode hex="03A8"/>
	<outline>
		<contour>
			<point x="317" y="0" type="line"/>
			<point x="398" y="0" type="line"/>
			<point x="398" y="203" type="line"/>
			<point x="551" y="203"/>
			<point x="654" y="286"/>
			<point x="654" y="469" type="curve" smooth="yes"/>
			<point x="654" y="698" type="line"/>
			<point x="573" y="698" type="line"/>
			<point x="573" y="469" type="line" smooth="yes"/>
			<point x="573" y="321"/>
			<point x="496" y="271"/>
			<point x="398" y="271" type="curve"/>
			<point x="398" y="698" type="line"/>
			<point x="317" y="698" type="line"/>
			<point x="317" y="271" type="line"/>
			<point x="218" y="271"/>
			<point x="142" y="321"/>
			<point x="142" y="469" type="curve" smooth="yes"/>
			<point x="142" y="698" type="line"/>
			<point x="61" y="698" type="line"/>
			<point x="61" y="469" type="line" smooth="yes"/>
			<point x="61" y="286"/>
			<point x="164" y="203"/>
			<point x="317" y="203" type="curve"/>
		</contour>
	</outline>
</glyph>
<glyph name="alpha" format="2">
	<advance width="581"/>
	<unicode hex="03B1"/>
	<anchor x="242" y="540" name="top"/>
	<outline>
		<contour>
			<point x="549" y="67" type="line"/>
			<point x="500" y="67" type="line"/>
			<point x="443" y="260" type="line"/>
			<point x="542" y="515" type="line"/>
			<point x="458" y="515" type="line"/>
			<point x="434" y="438" type="line"/>
			<point x="412" y="329" type="line"/>
			<point x="402" y="329" type="line"/>
			<point x="380" y="464"/>
			<point x="325" y="527"/>
			<point x="230" y="527" type="curve" smooth="yes"/>
			<point x="118" y="527"/>
			<point x="44" y="420"/>
			<point x="44" y="258" type="curve" smooth="yes"/>
			<point x="44" y="94"/>
			<point x="119" y="-12"/>
			<point x="230" y="-12" type="curve" smooth="yes"/>
			<point x="326" y="-12"/>
			<point x="379" y="54"/>
			<point x="399" y="186" type="curve"/>
			<point x="409" y="186" type="line"/>
			<point x="422" y="81" type="line" smooth="yes"/>
			<point x="429" y="26"/>
			<point x="453" y="0"/>
			<point x="507" y="0" type="curve" smooth="yes"/>
			<point x="549" y="0" type="line"/>
		</contour>
		<contour>
			<point x="231" y="56" type="curve" smooth="yes"/>
			<point x="176" y="56"/>
			<point x="126" y="113"/>
			<point x="126" y="222" type="curve" smooth="yes"/>
			<point x="126" y="293" type="line" smooth="yes"/>
			<point x="126" y="402"/>
			<point x="176" y="459"/>
			<point x="231" y="459" type="curve" smooth="yes"/>
			<point x="284" y="459"/>
			<point x="313" y="434"/>
			<point x="343" y="342" type="curve" smooth="yes"/>
			<point x="370" y="258" type="line"/>
			<point x="343" y="175" type="line" smooth="yes"/>
			<point x="313" y="82"/>
			<point x="283" y="56"/>
		</contour>
	</outline>
</glyph>
<glyph name="beta" format="2">
	<advance width="527"/>
	<unicode hex="03B2"/>
	<outline>
		<contour>
			<point x="75" y="-200" type="line"/>
			<point x="152" y="-200" type="line"/>
			<point x="152" y="61" type="line"/>
			<point x="156" y="61" type="line"/>
			<point x="181" y="13"/>
			<point x="228" y="-12"/>
			<point x="288" y="-12" type="curve" smooth="yes"/>
			<point x="407" y="-12"/>
			<point x="479" y="84"/>
			<point x="479" y="211" type="curve" smooth="yes"/>
			<point x="479" y="342"/>
			<point x="402" y="393"/>
			<point x="328" y="400" type="curve"/>
			<point x="328" y="410" type="line"/>
			<point x="388" y="419"/>
			<point x="447" y="473"/>
			<point x="447" y="574" type="curve" smooth="yes"/>
			<point x="447" y="684"/>
			<point x="377" y="752"/>
			<point x="266" y="752" type="curve" smooth="yes"/>
			<point x="141" y="752"/>
			<point x="75" y="661"/>
			<point x="75" y="521" type="curve"/>
		</contour>
		<contour>
			<point x="223" y="369" type="line"/>
			<point x="269" y="369" type="line" smooth="yes"/>
			<point x="348" y="369"/>
			<point x="397" y="317"/>
			<point x="397" y="226" type="curve" smooth="yes"/>
			<point x="397" y="201" type="line" smooth="yes"/>
			<point x="397" y="111"/>
			<point x="349" y="57"/>
			<point x="268" y="57" type="curve" smooth="yes"/>
			<point x="205" y="57"/>
			<point x="152" y="87"/>
			<point x="152" y="137" type="curve" smooth="yes"/>
			<point x="152" y="527" type="line" smooth="yes"/>
			<point x="152" y="634"/>
			<point x="188" y="683"/>
			<point x="262" y="683" type="curve" smooth="yes"/>
			<point x="333" y="683"/>
			<point x="365" y="640"/>
			<point x="365" y="576" type="curve" smooth="yes"/>
			<point x="365" y="551" type="line" smooth="yes"/>
			<point x="365" y="483"/>
			<point x="334" y="437"/>
			<point x="265" y="437" type="curve" smooth="yes"/>
			<point x="223" y="437" type="line"/>
		</contour>
	</outline>
</glyph>
<glyph name="gamma" format="2">
	<advance width="455"/>
	<unicode hex="03B3"/>
	<outline>
		<contour>
			<point x="193" y="-200" type="line"/>
			<point x="270" y="-200" type="line"/>
			<point x="270" y="0" type="line"/>
			<point x="439" y="515" type="line"/>
			<point x="365" y="515" type="line"/>
			<point x="281" y="252" type="line"/>
			<point x="238" y="90" type="line"/>
			<point x="228" y="90" type="line"/>
			<point x="188" y="252" type="line"/>
			<point x="131" y="458" type="line" smooth="yes"/>
			<point x="119" y="502"/>
			<point x="92" y="515"/>
			<point x="50" y="515" type="curve" smooth="yes"/>
			<point x="9" y="515" type="line"/>
			<point x="9" y="448" type="line"/>
			<point x="57" y="448" type="line"/>
			<point x="193" y="0" type="line"/>
		</contour>
	</outline>
</glyph>
<glyph name="delta" format="2">
	<advance width="503"/>
	<unicode hex="03B4"/>
	<outline>
		<contour>
			<point x="282" y="488" type="curve"/>
			<point x="232" y="533" type="line"/>
			<point x="232" y="512" type="line"/>
			<point x="131" y="512"/>
			<point x="41" y="423"/>
			<point x="41" y="250" type="curve" smooth="yes"/>
			<point x="41" y="94"/>
			<point x="126" y="-12"/>
			<point x="252" y="-12" type="curve" smooth="yes"/>
			<point x="377" y="-12"/>
			<point x="462" y="91"/>
			<point x="462" y="258" type="curve" smooth="yes"/>
			<point x="462" y="365"/>
			<point x="421" y="448"/>
			<point x="299" y="559" type="curve" smooth="yes"/>
			<point x="173" y="671" type="line"/>
			<point x="173" y="681" type="line"/>
			<point x="237" y="673" type="line"/>
			<point x="414" y="673" type="line"/>
			<point x="414" y="740" type="line"/>
			<point x="103" y="740" type="line"/>
			<point x="103" y="651" type="line"/>
			<point x="255" y="503" type="line" smooth="yes"/>
			<point x="362" y="399"/>
			<point x="380" y="345"/>
			<point x="380" y="241" type="curve"/>
			<point x="380" y="222" type="line" smooth="yes"/>
			<point x="380" y="111"/>
			<point x="327" y="56"/>
			<point x="252" y="56" type="curve" smooth="yes"/>
			<point x="177" y="56"/>
			<point x="123" y="111"/>
			<point x="123" y="223" type="curve" smooth="yes"/>
			<point x="123" y="276" type="line" smooth="yes"/>
			<point x="123" y="405"/>
			<point x="189" y="481"/>
		</contour>
	</outline>
</glyph>
<glyph name="epsilon" format="2">
	<advance width="468"/>
	<unicode hex="03B5"/>
	<anchor x="247" y="540" name="top"/>
	<outline>
		<contour>
			<point x="390" y="138" type="line"/>
			<point x="364" y="86"/>
			<point x="318" y="56"/>
			<point x="246" y="56" type="curve" smooth="yes"/>
			<point x="172" y="56"/>
			<point x="135" y="87"/>
			<point x="135" y="140" type="curve" smooth="yes"/>
			<point x="135" y="152" type="line" smooth="yes"/>
			<point x="135" y="205"/>
			<point x="168" y="234"/>
			<point x="229" y="234" type="curve" smooth="yes"/>
			<point x="339" y="234" type="line"/>
			<point x="339" y="298" type="line"/>
			<point x="230" y="298" type="line" smooth="yes"/>
			<point x="177" y="298"/>
			<point x="145" y="331"/>
			<point x="145" y="374" type="curve" smooth="yes"/>
			<point x="145" y="386" type="line" smooth="yes"/>
			<point x="145" y="423"/>
			<point x="175" y="459"/>
			<point x="248" y="459" type="curve" smooth="yes"/>
			<point x="311" y="459"/>
			<point x="360" y="431"/>
			<point x="384" y="384" type="curve"/>
			<point x="438" y="428" type="line"/>
			<point x="404" y="489"/>
			<point x="336" y="527"/>
			<point x="248" y="527" type="curve" smooth="yes"/>
			<point x="132" y="527"/>
			<point x="63" y="464"/>
			<point x="63" y="379" type="curve" smooth="yes"/>
			<point x="63" y="315"/>
			<point x="102" y="277"/>
			<point x="167" y="272" type="curve"/>
			<point x="167" y="262" type="line"/>
			<point x="93" y="250"/>
			<point x="53" y="208"/>
			<point x="53" y="137" type="curve" smooth="yes"/>
			<point x="53" y="48"/>
			<point x="115" y="-12"/>
			<point x="240" y="-12" type="curve" smooth="yes"/>
			<point x="338" y="-12"/>
			<point x="404" y="25"/>
			<point x="443" y="98" type="curve"/>
		</contour>
	</outline>
</glyph>
<glyph name="zeta" format="2">
	<advance width="385"/>
	<unicode hex="03B6"/>
	<outline>
		<contour>
			<point x="57" y="673" type="line"/>
			<point x="227" y="673" type="line"/>
			<point x="284" y="685" type="line"/>
			<point x="284" y="673" type="line"/>
			<point x="151" y="482" type="line" smooth="yes"/>
			<point x="63" y="355"/>
			<point x="41" y="291"/>
			<point x="41" y="222" type="curve" smooth="yes"/>
			<point x="41" y="100"/>
			<point x="87" y="43"/>
			<point x="223" y="5" type="curve" smooth="yes"/>
			<point x="287" y="-13" type="line"/>
			<point x="256" y="-141" type="line"/>
			<point x="327" y="-159" type="line"/>
			<point x="356" y="-46" type="line" smooth="yes"/>
			<point x="359" y="-34"/>
			<point x="361" y="-24"/>
			<point x="361" y="-14" type="curve" smooth="yes"/>
			<point x="361" y="21"/>
			<point x="341" y="46"/>
			<point x="300" y="58" type="curve" smooth="yes"/>
			<point x="235" y="77" type="line" smooth="yes"/>
			<point x="155" y="100"/>
			<point x="123" y="142"/>
			<point x="123" y="215" type="curve" smooth="yes"/>
			<point x="123" y="229" type="line" smooth="yes"/>
			<point x="123" y="287"/>
			<point x="143" y="353"/>
			<point x="217" y="458" type="curve" smooth="yes"/>
			<point x="375" y="682" type="line"/>
			<point x="375" y="740" type="line"/>
			<point x="57" y="740" type="line"/>
		</contour>
	</outline>
</glyph>
<glyph name="eta" format="2">
	<advance width="519"/>
	<unicode hex="03B7"/>
	<anchor x="267" y="540" name="top"/>
	<outline>
		<contour>
			<point x="157" y="0" type="line"/>
			<point x="157" y="358" type="line" smooth="yes"/>
			<point x="157" y="425"/>
			<point x="212" y="458"/>
			<point x="268" y="458" type="curve" smooth="yes"/>
			<point x="336" y="458"/>
			<point x="371" y="411"/>
			<point x="371" y="317" type="curve" smooth="yes"/>
			<point x="371" y="-200" type="line"/>
			<point x="448" y="-200" type="line"/>
			<point x="448" y="331" type="line" smooth="yes"/>
			<point x="448" y="455"/>
			<point x="388" y="527"/>
			<point x="293" y="527" type="curve" smooth="yes"/>
			<point x="223" y="527"/>
			<point x="180" y="489"/>
			<point x="168" y="432" type="curve"/>
			<point x="117" y="432" type="line"/>
			<point x="157" y="426" type="line"/>
			<point x="157" y="431" type="line" smooth="yes"/>
			<point x="157" y="481"/>
			<point x="130" y="515"/>
			<point x="79" y="515" type="curve" smooth="yes"/>
			<point x="28" y="515" type="line"/>
			<point x="28" y="448" type="line"/>
			<point x="80" y="448" type="line"/>
			<point x="80" y="0" type="line"/>
		</contour>
	</outline>
</glyph>
<glyph name="theta" format="2">
	<advance width="506"/>
	<unicode hex="03B8"/>
	<outline>
		<contour>
			<point x="131" y="464" type="line" smooth="yes"/>
			<point x="131" y="626"/>
			<point x="176" y="686"/>
			<point x="253" y="686" type="curve" smooth="yes"/>
			<point x="330" y="686"/>
			<point x="375" y="626"/>
			<point x="375" y="464" type="curve" smooth="yes"/>
			<point x="375" y="404" type="line"/>
			<point x="131" y="404" type="line"/>
		</contour>
		<contour>
			<point x="253" y="752" type="curve" smooth="yes"/>
			<point x="125" y="752"/>
			<point x="49" y="659"/>
			<point x="49" y="370" type="curve" smooth="yes"/>
			<point x="49" y="81"/>
			<point x="125" y="-12"/>
			<point x="253" y="-12" type="curve" smooth="yes"/>
			<point x="382" y="-12"/>
			<point x="457" y="83"/>
			<point x="457" y="370" type="curve" smooth="yes"/>
			<point x="457" y="657"/>
			<point x="382" y="752"/>
		</contour>
		<contour>
			<point x="253" y="54" type="curve" smooth="yes"/>
			<point x="176" y="54"/>
			<point x="131" y="114"/>
			<point x="131" y="276" type="curve" smooth="yes"/>
			<point x="131" y="336" type="line"/>
			<point x="375" y="336" type="line"/>
			<point x="375" y="276" type="line" smooth="yes"/>
			<point x="375" y="114"/>
			<point x="330" y="54"/>
		</contour>
	</outline>
</glyph>
<glyph name="iota" format="2">
	<advance width="268"/>
	<unicode hex="03B9"/>
	<anchor x="120" y="540" name="top"/>
	<outline>
		<contour>
			<point x="246" y="67" type="line"/>
			<point x="152" y="67" type="line"/>
			<point x="152" y="515" type="line"/>
			<point x="75" y="515" type="line"/>
			<point x="75" y="82" type="line"/>
			<point x="75" y="34"/>
			<point x="104" y="0"/>
			<point x="157" y="0" type="curve" smooth="yes"/>
			<point x="246" y="0" type="line"/>
		</contour>
	</outline>
</glyph>
<glyph name="kappa" format="2">
	<advance width="478"/>
	<unicode hex="03BA"/>
	<outline>
		<contour>
			<point x="370" y="0" type="line"/>
			<point x="463" y="0" type="line"/>
			<point x="267" y="295" type="line"/>
			<point x="388" y="448" type="line"/>
			<point x="442" y="448" type="line"/>
			<point x="442" y="515" type="line"/>
			<point x="397" y="515" type="line" smooth="yes"/>
			<point x="370" y="515"/>
			<point x="352" y="510"/>
			<point x="334" y="487" type="curve" smooth="yes"/>
			<point x="202" y="320" type="line"/>
			<point x="164" y="260" type="line"/>
			<point x="152" y="260" type="line"/>
			<point x="152" y="515" type="line"/>
			<point x="75" y="515" type="line"/>
			<point x="75" y="0" type="line"/>
			<point x="152" y="0" type="line"/>
			<point x="152" y="174" type="line"/>
			<point x="212" y="247" type="line"/>
		</contour>
	</outline>
</glyph>
<glyph name="lambda" format="2">
	<advance width="460"/>
	<unicode hex="03BB"/>
	<outline>
		<contour>
			<point x="189" y="516" type="line"/>
			<point x="5" y="0" type="line"/>
			<point x="81" y="0" type="line"/>
			<point x="170" y="260" type="line"/>
			<point x="218" y="438" type="line"/>
			<point x="228" y="438" type="line"/>
			<point x="266" y="260" type="line"/>
			<point x="323" y="55" type="line" smooth="yes"/>
			<point x="334" y="18"/>
			<point x="355" y="0"/>
			<point x="402" y="0" type="curve" smooth="yes"/>
			<point x="453" y="0" type="line"/>
			<point x="453" y="67" type="line"/>
			<point x="395" y="67" type="line"/>
			<point x="218" y="685" type="line" smooth="yes"/>
			<point x="207" y="722"/>
			<point x="184" y="740"/>
			<point x="138" y="740" type="curve" smooth="yes"/>
			<point x="53" y="740" type="line"/>
			<point x="53" y="673" type="line"/>
			<point x="145" y="673" type="line"/>
		</contour>
	</outline>
</glyph>
<glyph name="nu" format="2">
	<advance width="463"/>
	<unicode hex="03BD"/>
	<outline>
		<contour>
			<point x="279" y="0" type="line"/>
			<point x="447" y="515" type="line"/>
			<point x="373" y="515" type="line"/>
			<point x="289" y="257" type="line"/>
			<point x="242" y="81" type="line"/>
			<point x="232" y="81" type="line"/>
			<point x="187" y="257" type="line"/>
			<point x="131" y="459" type="line" smooth="yes"/>
			<point x="119" y="502"/>
			<point x="92" y="515"/>
			<point x="50" y="515" type="curve" smooth="yes"/>
			<point x="9" y="515" type="line"/>
			<point x="9" y="448" type="line"/>
			<point x="57" y="448" type="line"/>
			<point x="189" y="0" type="line"/>
		</contour>
	</outline>
</glyph>
<glyph name="xi" format="2">
	<advance width="409"/>
	<unicode hex="03BE"/>
	<outline>
		<contour>
			<point x="386" y="673" type="line"/>
			<point x="386" y="740" type="line"/>
			<point x="40" y="740" type="line"/>
			<point x="40" y="673" type="line"/>
			<point x="162" y="673" type="line"/>
			<point x="162" y="663" type="line"/>
			<point x="109" y="646"/>
			<point x="80" y="600"/>
			<point x="80" y="537" type="curve" smooth="yes"/>
			<point x="80" y="462"/>
			<point x="109" y="410"/>
			<point x="186" y="392" type="curve"/>
			<point x="186" y="382" type="line"/>
			<point x="99" y="373"/>
			<point x="48" y="303"/>
			<point x="48" y="217" type="curve" smooth="yes"/>
			<point x="48" y="99"/>
			<point x="96" y="44"/>
			<point x="231" y="6" type="curve" smooth="yes"/>
			<point x="299" y="-13" type="line"/>
			<point x="267" y="-141" type="line"/>
			<point x="339" y="-159" type="line"/>
			<point x="368" y="-46" type="line" smooth="yes"/>
			<point x="371" y="-34"/>
			<point x="373" y="-24"/>
			<point x="373" y="-14" type="curve" smooth="yes"/>
			<point x="373" y="20"/>
			<point x="354" y="45"/>
			<point x="311" y="58" type="curve" smooth="yes"/>
			<point x="243" y="78" type="line" smooth="yes"/>
			<point x="163" y="102"/>
			<point x="130" y="142"/>
			<point x="130" y="210" type="curve" smooth="yes"/>
			<point x="130" y="224" type="line" smooth="yes"/>
			<point x="130" y="304"/>
			<point x="167" y="351"/>
			<point x="256" y="351" type="curve" smooth="yes"/>
			<point x="335" y="351" type="line"/>
			<point x="335" y="419" type="line"/>
			<point x="260" y="419" type="line" smooth="yes"/>
			<point x="197" y="419"/>
			<point x="162" y="459"/>
			<point x="162" y="530" type="curve" smooth="yes"/>
			<point x="162" y="544" type="line" smooth="yes"/>
			<point x="162" y="625"/>
			<point x="203" y="673"/>
			<point x="267" y="673" type="curve" smooth="yes"/>
		</contour>
	</outline>
</glyph>
<glyph name="pi" format="2">
	<advance width="563"/>
	<unicode hex="03C0"/>
	<outline>
		<contour>
			<point x="442" y="448" type="line"/>
			<point x="534" y="448" type="line"/>
			<point x="534" y="515" type="line"/>
			<point x="22" y="515" type="line"/>
			<point x="22" y="448" type="line"/>
			<point x="106" y="448" type="line"/>
			<point x="106" y="0" type="line"/>
			<point x="183" y="0" type="line"/>
			<point x="183" y="448" type="line"/>
			<point x="365" y="448" type="line"/>
			<point x="365" y="79" type="line" smooth="yes"/>
			<point x="365" y="35"/>
			<point x="393" y="0"/>
			<point x="446" y="0" type="curve" smooth="yes"/>
			<point x="499" y="0" type="line"/>
			<point x="499" y="67" type="line"/>
			<point x="442" y="67" type="line"/>
		</contour>
	</outline>
</glyph>
<glyph name="rho" format="2">
	<advance width="498"/>
	<unicode hex="03C1"/>
	<outline>
		<contour>
			<point x="51" y="-200" type="line"/>
			<point x="128" y="-200" type="line"/>
			<point x="128" y="60" type="line"/>
			<point x="138" y="60" type="line"/>
			<point x="155" y="15"/>
			<point x="205" y="-12"/>
			<point x="264" y="-12" type="curve" smooth="yes"/>
			<point x="382" y="-12"/>
			<point x="454" y="88"/>
			<point x="454" y="262" type="curve" smooth="yes"/>
			<point x="454" y="429"/>
			<point x="386" y="527"/>
			<point x="254" y="527" type="curve" smooth="yes"/>
			<point x="119" y="527"/>
			<point x="51" y="424"/>
			<point x="51" y="294" type="curve" smooth="yes"/>
		</contour>
		<contour>
			<point x="244" y="57" type="curve" smooth="yes"/>
			<point x="183" y="57"/>
			<point x="128" y="88"/>
			<point x="128" y="137" type="curve" smooth="yes"/>
			<point x="128" y="293" type="line" smooth="yes"/>
			<point x="128" y="399"/>
			<point x="173" y="458"/>
			<point x="250" y="458" type="curve" smooth="yes"/>
			<point x="326" y="458"/>
			<point x="371" y="399"/>
			<point x="371" y="294" type="curve" smooth="yes"/>
			<point x="371" y="221" type="line" smooth="yes"/>
			<point x="371" y="118"/>
			<point x="329" y="57"/>
		</contour>
	</outline>
</glyph>
<glyph name="sigma1" format="2">
	<advance width="436"/>
	<unicode hex="03C2"/>
	<outline>
		<contour>
			<point x="274" y="-141" type="line"/>
			<point x="346" y="-159" type="line"/>
			<point x="374" y="-46" type="line" smooth="yes"/>
			<point x="377" y="-34"/>
			<point x="379" y="-25"/>
			<point x="379" y="-14" type="curve" smooth="yes"/>
			<point x="379" y="21"/>
			<point x="359" y="46"/>
			<point x="318" y="58" type="curve" smooth="yes"/>
			<point x="237" y="82" type="line" smooth="yes"/>
			<point x="157" y="107"/>
			<point x="123" y="159"/>
			<point x="123" y="235" type="curve" smooth="yes"/>
			<point x="123" y="301" type="line" smooth="yes"/>
			<point x="123" y="394"/>
			<point x="167" y="459"/>
			<point x="238" y="459" type="curve" smooth="yes"/>
			<point x="289" y="459"/>
			<point x="327" y="428"/>
			<point x="343" y="375" type="curve"/>
			<point x="408" y="408" type="line"/>
			<point x="379" y="482"/>
			<point x="321" y="527"/>
			<point x="240" y="527" type="curve" smooth="yes"/>
			<point x="118" y="527"/>
			<point x="41" y="427"/>
			<point x="41" y="261" type="curve" smooth="yes"/>
			<point x="41" y="127"/>
			<point x="91" y="52"/>
			<point x="201" y="19" type="curve" smooth="yes"/>
			<point x="306" y="-13" type="line"/>
		</contour>
	</outline>
</glyph>
<glyph name="sigma" format="2">
	<advance width="524"/>
	<unicode hex="03C3"/>
	<outline>
		<contour>
			<point x="502" y="448" type="line"/>
			<point x="502" y="515" type="line"/>
			<point x="262" y="515" type="line" smooth="yes"/>
			<point x="120" y="515"/>
			<point x="41" y="410"/>
			<point x="41" y="252" type="curve" smooth="yes"/>
			<point x="41" y="93"/>
			<point x="127" y="-12"/>
			<point x="252" y="-12" type="curve" smooth="yes"/>
			<point x="377" y="-12"/>
			<point x="462" y="94"/>
			<point x="462" y="252" type="curve" smooth="yes"/>
			<point x="462" y="349"/>
			<point x="438" y="410"/>
			<point x="380" y="437" type="curve"/>
			<point x="380" y="448" type="line"/>
		</contour>
		<contour>
			<point x="323" y="448" type="line"/>
			<point x="361" y="403"/>
			<point x="380" y="357"/>
			<point x="380" y="282" type="curve" smooth="yes"/>
			<point x="380" y="221" type="line" smooth="yes"/>
			<point x="380" y="111"/>
			<point x="327" y="56"/>
			<point x="252" y="56" type="curve" smooth="yes"/>
			<point x="177" y="56"/>
			<point x="123" y="111"/>
			<point x="123" y="221" type="curve" smooth="yes"/>
			<point x="123" y="282" type="line" smooth="yes"/>
			<point x="123" y="392"/>
			<point x="176" y="448"/>
			<point x="262" y="448" type="curve" smooth="yes"/>
		</contour>
	</outline>
</glyph>
<glyph name="tau" format="2">
	<advance width="431"/>
	<unicode hex="03C4"/>
	<outline>
		<contour>
			<point x="347" y="0" type="line"/>
			<point x="347" y="67" type="line"/>
			<point x="244" y="67" type="line"/>
			<point x="244" y="448" type="line"/>
			<point x="402" y="448" type="line"/>
			<point x="402" y="515" type="line"/>
			<point x="18" y="515" type="line"/>
			<point x="18" y="448" type="line"/>
			<point x="167" y="448" type="line"/>
			<point x="167" y="82" type="line" smooth="yes"/>
			<point x="167" y="34"/>
			<point x="196" y="0"/>
			<point x="249" y="0" type="curve" smooth="yes"/>
		</contour>
	</outline>
</glyph>
<glyph name="upsilon" format="2">
	<advance width="511"/>
	<unicode hex="03C5"/>
	<anchor x="256" y="540" name="top"/>
	<outline>
		<contour>
			<point x="147" y="515" type="line"/>
			<point x="70" y="515" type="line"/>
			<point x="70" y="245" type="line" smooth="yes"/>
			<point x="70" y="67"/>
			<point x="133" y="-12"/>
			<point x="256" y="-12" type="curve" smooth="yes"/>
			<point x="378" y="-12"/>
			<point x="441" y="67"/>
			<point x="441" y="245" type="curve" smooth="yes"/>
			<point x="441" y="515" type="line"/>
			<point x="364" y="515" type="line"/>
			<point x="364" y="233" type="line" smooth="yes"/>
			<point x="364" y="112"/>
			<point x="333" y="56"/>
			<point x="256" y="56" type="curve" smooth="yes"/>
			<point x="179" y="56"/>
			<point x="147" y="111"/>
			<point x="147" y="233" type="curve" smooth="yes"/>
		</contour>
	</outline>
</glyph>
<glyph name="phi" format="2">
	<advance width="647"/>
	<unicode hex="03C6"/>
	<outline>
		<contour>
			<point x="276" y="-200" type="line"/>
			<point x="353" y="-200" type="line"/>
			<point x="353" y="-12" type="line"/>
			<point x="507" y="-12"/>
			<point x="601" y="87"/>
			<point x="601" y="274" type="curve" smooth="yes"/>
			<point x="601" y="452"/>
			<point x="544" y="527"/>
			<point x="436" y="527" type="curve" smooth="yes"/>
			<point x="333" y="527"/>
			<point x="276" y="453"/>
			<point x="276" y="274" type="curve" smooth="yes"/>
			<point x="276" y="56" type="line"/>
			<point x="194" y="56"/>
			<point x="126" y="110"/>
			<point x="126" y="230" type="curve" smooth="yes"/>
			<point x="126" y="270" type="line" smooth="yes"/>
			<point x="126" y="377"/>
			<point x="154" y="437"/>
			<point x="218" y="473" type="curve"/>
			<point x="173" y="527" type="line"/>
			<point x="88" y="482"/>
			<point x="44" y="388"/>
			<point x="44" y="250" type="curve" smooth="yes"/>
			<point x="44" y="91"/>
			<point x="142" y="-12"/>
			<point x="276" y="-12" type="curve"/>
		</contour>
		<contour>
			<point x="353" y="298" type="line" smooth="yes"/>
			<point x="353" y="418"/>
			<point x="384" y="459"/>
			<point x="436" y="459" type="curve" smooth="yes"/>
			<point x="487" y="459"/>
			<point x="519" y="419"/>
			<point x="519" y="299" type="curve" smooth="yes"/>
			<point x="519" y="231" type="line" smooth="yes"/>
			<point x="519" y="105"/>
			<point x="452" y="56"/>
			<point x="353" y="56" type="curve"/>
		</contour>
	</outline>
</glyph>
<glyph name="chi" format="2">
	<advance width="449"/>
	<unicode hex="03C7"/>
	<outline>
		<contour>
			<point x="11" y="515" type="line"/>
			<point x="11" y="448" type="line"/>
			<point x="73" y="448" type="line"/>
			<point x="181" y="167" type="line"/>
			<point x="15" y="-200" type="line"/>
			<point x="99" y="-200" type="line"/>
			<point x="219" y="101" type="line"/>
			<point x="229" y="101" type="line"/>
			<point x="312" y="-145" type="line" smooth="yes"/>
			<point x="327" y="-186"/>
			<point x="349" y="-200"/>
			<point x="393" y="-200" type="curve" smooth="yes"/>
			<point x="447" y="-200" type="line"/>
			<point x="447" y="-133" type="line"/>
			<point x="386" y="-133" type="line"/>
			<point x="272" y="172" type="line"/>
			<point x="432" y="515" type="line"/>
			<point x="348" y="515" type="line"/>
			<point x="234" y="237" type="line"/>
			<point x="224" y="237" type="line"/>
			<point x="146" y="460" type="line" smooth="yes"/>
			<point x="130" y="502"/>
			<point x="111" y="515"/>
			<point x="66" y="515" type="curve" smooth="yes"/>
		</contour>
	</outline>
</glyph>
<glyph name="psi" format="2">
	<advance width="655"/>
	<unicode hex="03C8"/>
	<outline>
		<contour>
			<point x="366" y="-200" type="line"/>
			<point x="366" y="-12" type="line"/>
			<point x="506" y="-12"/>
			<point x="585" y="86"/>
			<point x="585" y="257" type="curve" smooth="yes"/>
			<point x="585" y="515" type="line"/>
			<point x="508" y="515" type="line"/>
			<point x="508" y="233" type="line" smooth="yes"/>
			<point x="508" y="118"/>
			<point x="462" y="56"/>
			<point x="366" y="56" type="curve"/>
			<point x="366" y="710" type="line"/>
			<point x="289" y="710" type="line"/>
			<point x="289" y="56" type="line"/>
			<point x="193" y="56"/>
			<point x="147" y="118"/>
			<point x="147" y="233" type="curve" smooth="yes"/>
			<point x="147" y="515" type="line"/>
			<point x="70" y="515" type="line"/>
			<point x="70" y="257" type="line" smooth="yes"/>
			<point x="70" y="86"/>
			<point x="149" y="-12"/>
			<point x="289" y="-12" type="curve"/>
			<point x="289" y="-200" type="line"/>
		</contour>
	</outline>
</glyph>
<glyph name="omega" format="2">
	<advance width="665"/>
	<unicode hex="03C9"/>
	<anchor x="332" y="540" name="top"/>
	<outline>
		<contour>
			<point x="371" y="349" type="line"/>
			<point x="294" y="349" type="line"/>
			<point x="294" y="217" type="line" smooth="yes"/>
			<point x="294" y="97"/>
			<point x="263" y="56"/>
			<point x="211" y="56" type="curve" smooth="yes"/>
			<point x="159" y="56"/>
			<point x="128" y="98"/>
			<point x="128" y="217" type="curve" smooth="yes"/>
			<point x="128" y="269" type="line" smooth="yes"/>
			<point x="128" y="377"/>
			<point x="156" y="437"/>
			<point x="220" y="473" type="curve"/>
			<point x="175" y="527" type="line"/>
			<point x="92" y="483"/>
			<point x="46" y="390"/>
			<point x="46" y="242" type="curve" smooth="yes"/>
			<point x="46" y="63"/>
			<point x="108" y="-12"/>
			<point x="201" y="-12" type="curve" smooth="yes"/>
			<point x="274" y="-12"/>
			<point x="316" y="40"/>
			<point x="328" y="116" type="curve"/>
			<point x="337" y="116" type="line"/>
			<point x="349" y="40"/>
			<point x="389" y="-12"/>
			<point x="463" y="-12" type="curve" smooth="yes"/>
			<point x="557" y="-12"/>
			<point x="619" y="63"/>
			<point x="619" y="242" type="curve" smooth="yes"/>
			<point x="619" y="397"/>
			<point x="573" y="484"/>
			<point x="489" y="527" type="curve"/>
			<point x="445" y="473" type="line"/>
			<point x="509" y="438"/>
			<point x="536" y="366"/>
			<point x="536" y="269" type="curve" smooth="yes"/>
			<point x="536" y="217" type="line" smooth="yes"/>
			<point x="536" y="97"/>
			<point x="505" y="56"/>
			<point x="454" y="56" type="curve" smooth="yes"/>
			<point x="402" y="56"/>
			<point x="371" y="96"/>
			<point x="371" y="217" type="curve" smooth="yes"/>
		</contour>
	</outline>
</glyph>
<glyph name="uni0402" format="2">
	<advance width="709"/>
	<unicode hex="0402"/>
	<outline>
		<contour>
			<point x="455" y="-164" type="line"/>
			<point x="497" y="-164" type="line" smooth="yes"/>
			<point x="600" y="-164"/>
			<point x="657" y="-97"/>
			<point x="657" y="63" type="curve" smooth="yes"/>
			<point x="657" y="190" type="line" smooth="yes"/>
			<point x="657" y="358"/>
			<point x="585" y="437"/>
			<point x="435" y="437" type="curve" smooth="yes"/>
			<point x="383" y="437"/>
			<point x="335" y="428"/>
			<point x="302" y="414" type="curve"/>
			<point x="298" y="414" type="line"/>
			<point x="298" y="627" type="line"/>
			<point x="495" y="627" type="line"/>
			<point x="495" y="698" type="line"/>
			<point x="20" y="698" type="line"/>
			<point x="20" y="627" type="line"/>
			<point x="217" y="627" type="line"/>
			<point x="217" y="0" type="line"/>
			<point x="298" y="0" type="line"/>
			<point x="298" y="343" type="line"/>
			<point x="328" y="357"/>
			<point x="379" y="366"/>
			<point x="432" y="366" type="curve" smooth="yes"/>
			<point x="526" y="366"/>
			<point x="576" y="313"/>
			<point x="576" y="190" type="curve" smooth="yes"/>
			<point x="576" y="63" type="line" smooth="yes"/>
			<point x="576" y="-22"/>
			<point x="560" y="-67"/>
			<point x="532" y="-93" type="curve"/>
			<point x="455" y="-93" type="line"/>
		</contour>
	</outline>
</glyph>
<glyph name="uni0404" format="2">
	<advance width="571"/>
	<unicode hex="0404"/>
	<outline>
		<contour>
			<point x="312" y="-12" type="curve" smooth="yes"/>
			<point x="424" y="-12"/>
			<point x="498" y="49"/>
			<point x="538" y="147" type="curve"/>
			<point x="474" y="187" type="line"/>
			<point x="449" y="110"/>
			<point x="397" y="60"/>
			<point x="312" y="60" type="curve" smooth="yes"/>
			<point x="200" y="60"/>
			<point x="138" y="148"/>
			<point x="138" y="295" type="curve" smooth="yes"/>
			<point x="138" y="337" type="line"/>
			<point x="98" y="317" type="line"/>
			<point x="398" y="317" type="line"/>
			<point x="398" y="389" type="line"/>
			<point x="98" y="389" type="line"/>
			<point x="138" y="369" type="line"/>
			<point x="138" y="396" type="line" smooth="yes"/>
			<point x="138" y="542"/>
			<point x="199" y="638"/>
			<point x="312" y="638" type="curve" smooth="yes"/>
			<point x="398" y="638"/>
			<point x="445" y="587"/>
			<point x="469" y="518" type="curve"/>
			<point x="534" y="558" type="line"/>
			<point x="494" y="653"/>
			<point x="424" y="710"/>
			<point x="312" y="710" type="curve" smooth="yes"/>
			<point x="146" y="710"/>
			<point x="52" y="578"/>
			<point x="52" y="345" type="curve" smooth="yes"/>
			<point x="52" y="112"/>
			<point x="146" y="-12"/>
		</contour>
	</outline>
</glyph>
<glyph name="uni0409" format="2">
	<advance width="915"/>
	<unicode hex="0409"/>
	<outline>
		<contour>
			<point x="10" y="0" type="line"/>
			<point x="44" y="0" type="line" smooth="yes"/>
			<point x="91" y="0"/>
			<point x="122" y="15"/>
			<point x="145" y="40" type="curve" smooth="yes"/>
			<point x="201" y="101"/>
			<point x="231" y="220"/>
			<point x="231" y="500" type="curve" smooth="yes"/>
			<point x="231" y="627" type="line"/>
			<point x="438" y="627" type="line"/>
			<point x="438" y="0" type="line"/>
			<point x="703" y="0" type="line" smooth="yes"/>
			<point x="816" y="0"/>
			<point x="880" y="78"/>
			<point x="880" y="208" type="curve" smooth="yes"/>
			<point x="880" y="339"/>
			<point x="816" y="417"/>
			<point x="703" y="417" type="curve" smooth="yes"/>
			<point x="519" y="417" type="line"/>
			<point x="519" y="698" type="line"/>
			<point x="154" y="698" type="line"/>
			<point x="154" y="505" type="line" smooth="yes"/>
			<point x="154" y="230"/>
			<point x="130" y="131"/>
			<point x="76" y="71" type="curve"/>
			<point x="10" y="71" type="line"/>
		</contour>
		<contour>
			<point x="519" y="71" type="line"/>
			<point x="519" y="346" type="line"/>
			<point x="702" y="346" type="line" smooth="yes"/>
			<point x="759" y="346"/>
			<point x="794" y="308"/>
			<point x="794" y="234" type="curve" smooth="yes"/>
			<point x="794" y="183" type="line" smooth="yes"/>
			<point x="794" y="109"/>
			<point x="759" y="71"/>
			<point x="702" y="71" type="curve" smooth="yes"/>
		</contour>
	</outline>
</glyph>
<glyph name="uni0413" format="2">
	<advance width="450"/>
	<unicode hex="0413"/>
	<anchor x="253" y="698" name="top"/>
	<outline>
		<contour>
			<point x="83" y="0" type="line"/>
			<point x="164" y="0" type="line"/>
			<point x="164" y="627" type="line"/>
			<point x="427" y="627" type="line"/>
			<point x="427" y="698" type="line"/>
			<point x="83" y="698" type="line"/>
		</contour>
	</outline>
</glyph>
<glyph name="uni0414" format="2">
	<advance width="660"/>
	<unicode hex="0414"/>
	<outline>
		<contour>
			<point x="10" y="-150" type="line"/>
			<point x="84" y="-150" type="line"/>
			<point x="84" y="0" type="line"/>
			<point x="558" y="0" type="line"/>
			<point x="558" y="-150" type="line"/>
			<point x="632" y="-150" type="line"/>
			<point x="632" y="71" type="line"/>
			<point x="543" y="71" type="line"/>
			<point x="543" y="698" type="line"/>
			<point x="159" y="698" type="line"/>
			<point x="159" y="494" type="line" smooth="yes"/>
			<point x="159" y="276"/>
			<point x="126" y="153"/>
			<point x="76" y="71" type="curve"/>
			<point x="10" y="71" type="line"/>
		</contour>
		<contour>
			<point x="170" y="71" type="line"/>
			<point x="170" y="76" type="line"/>
			<point x="210" y="149"/>
			<point x="236" y="274"/>
			<point x="236" y="488" type="curve" smooth="yes"/>
			<point x="236" y="627" type="line"/>
			<point x="462" y="627" type="line"/>
			<point x="462" y="71" type="line"/>
		</contour>
	</outline>
</glyph>
<glyph name="uni0418" format="2">
	<advance width="639"/>
	<unicode hex="0418"/>
	<anchor x="318" y="698" name="top"/>
	<outline>
		<contour>
			<point x="83" y="0" type="line"/>
			<point x="156" y="0" type="line"/>
			<point x="419" y="462" type="line"/>
			<point x="474" y="592" type="line"/>
			<point x="484" y="592" type="line"/>
			<point x="477" y="446" type="line"/>
			<point x="477" y="0" type="line"/>
			<point x="556" y="0" type="line"/>
			<point x="556" y="698" type="line"/>
			<point x="483" y="698" type="line"/>
			<point x="219" y="236" type="line"/>
			<point x="164" y="106" type="line"/>
			<point x="154" y="106" type="line"/>
			<point x="162" y="252" type="line"/>
			<point x="162" y="698" type="line"/>
			<point x="83" y="698" type="line"/>
		</contour>
	</outline>
</glyph>
<glyph name="uni0423" format="2">
	<advance width="538"/>
	<unicode hex="0423"/>
	<anchor x="277" y="698" name="top"/>
	<outline>
		<contour>
			<point x="127" y="0" type="line"/>
			<point x="180" y="0" type="line" smooth="yes"/>
			<point x="248" y="0"/>
			<point x="275" y="16"/>
			<point x="300" y="85" type="curve" smooth="yes"/>
			<point x="520" y="698" type="line"/>
			<point x="438" y="698" type="line"/>
			<point x="328" y="375" type="line"/>
			<point x="291" y="255" type="line"/>
			<point x="280" y="255" type="line"/>
			<point x="236" y="374" type="line"/>
			<point x="104" y="698" type="line"/>
			<point x="17" y="698" type="line"/>
			<point x="248" y="156" type="line"/>
			<point x="220" y="71" type="line"/>
			<point x="127" y="71" type="line"/>
		</contour>
	</outline>
</glyph>
<glyph name="uni0424" format="2">
	<advance width="764"/>
	<unicode hex="0424"/>
	<outline>
		<contour>
			<point x="342" y="-29" type="line"/>
			<point x="422" y="-29" type="line"/>
			<point x="422" y="61" type="line"/>
			<point x="450" y="61" type="line" smooth="yes"/>
			<point x="619" y="61"/>
			<point x="720" y="184"/>
			<point x="720" y="348" type="curve" smooth="yes"/>
			<point x="720" y="511"/>
			<point x="620" y="635"/>
			<point x="450" y="635" type="curve" smooth="yes"/>
			<point x="422" y="635" type="line"/>
			<point x="422" y="725" type="line"/>
			<point x="342" y="725" type="line"/>
			<point x="342" y="635" type="line"/>
			<point x="314" y="635" type="line" smooth="yes"/>
			<point x="145" y="635"/>
			<point x="44" y="512"/>
			<point x="44" y="348" type="curve" smooth="yes"/>
			<point x="44" y="184"/>
			<point x="144" y="61"/>
			<point x="313" y="61" type="curve" smooth="yes"/>
			<point x="342" y="61" type="line"/>
		</contour>
		<contour>
			<point x="313" y="128" type="line" smooth="yes"/>
			<point x="203" y="128"/>
			<point x="130" y="211"/>
			<point x="130" y="317" type="curve" smooth="yes"/>
			<point x="130" y="379" type="line" smooth="yes"/>
			<point x="130" y="484"/>
			<point x="203" y="568"/>
			<point x="314" y="568" type="curve" smooth="yes"/>
			<point x="344" y="568" type="line"/>
			<point x="344" y="128" type="line"/>
		</contour>
		<contour>
			<point x="421" y="128" type="line"/>
			<point x="421" y="568" type="line"/>
			<point x="450" y="568" type="line" smooth="yes"/>
			<point x="561" y="568"/>
			<point x="634" y="485"/>
			<point x="634" y="379" type="curve" smooth="yes"/>
			<point x="634" y="317" type="line" smooth="yes"/>
			<point x="634" y="211"/>
			<point x="560" y="128"/>
			<point x="450" y="128" type="curve" smooth="yes"/>
		</contour>
	</outline>
</glyph>
<glyph name="uni0427" format="2">
	<advance width="583"/>
	<unicode hex="0427"/>
	<anchor x="276" y="698" name="top"/>
	<outline>
		<contour>
			<point x="420" y="0" type="line"/>
			<point x="500" y="0" type="line"/>
			<point x="500" y="698" type="line"/>
			<point x="420" y="698" type="line"/>
			<point x="420" y="348" type="line"/>
			<point x="388" y="333"/>
			<point x="339" y="325"/>
			<point x="282" y="325" type="curve" smooth="yes"/>
			<point x="183" y="325"/>
			<point x="133" y="377"/>
			<point x="133" y="500" type="curve" smooth="yes"/>
			<point x="133" y="698" type="line"/>
			<point x="52" y="698" type="line"/>
			<point x="52" y="500" type="line" smooth="yes"/>
			<point x="52" y="333"/>
			<point x="124" y="253"/>
			<point x="278" y="253" type="curve" smooth="yes"/>
			<point x="332" y="253"/>
			<point x="383" y="262"/>
			<point x="410" y="277" type="curve"/>
			<point x="420" y="277" type="line"/>
		</contour>
	</outline>
</glyph>
<glyph name="uni0428" format="2">
	<advance width="867"/>
	<unicode hex="0428"/>
	<outline>
		<contour>
			<point x="83" y="0" type="line"/>
			<point x="784" y="0" type="line"/>
			<point x="784" y="698" type="line"/>
			<point x="703" y="698" type="line"/>
			<point x="703" y="71" type="line"/>
			<point x="474" y="71" type="line"/>
			<point x="474" y="698" type="line"/>
			<point x="393" y="698" type="line"/>
			<point x="393" y="71" type="line"/>
			<point x="164" y="71" type="line"/>
			<point x="164" y="698" type="line"/>
			<point x="83" y="698" type="line"/>
		</contour>
	</outline>
</glyph>
<glyph name="uni0429" format="2">
	<advance width="901"/>
	<unicode hex="0429"/>
	<outline>
		<contour>
			<point x="799" y="-150" type="line"/>
			<point x="873" y="-150" type="line"/>
			<point x="873" y="71" type="line"/>
			<point x="784" y="71" type="line"/>
			<point x="784" y="698" type="line"/>
			<point x="703" y="698" type="line"/>
			<point x="703" y="71" type="line"/>
			<point x="474" y="71" type="line"/>
			<point x="474" y="698" type="line"/>
			<point x="393" y="698" type="line"/>
			<point x="393" y="71" type="line"/>
			<point x="164" y="71" type="line"/>
			<point x="164" y="698" type="line"/>
			<point x="83" y="698" type="line"/>
			<point x="83" y="0" type="line"/>
			<point x="799" y="0" type="line"/>
		</contour>
	</outline>
</glyph>
<glyph name="uni0431" format="2">
	<advance width="507"/>
	<unicode hex="0431"/>
	<outline>
		<contour>
			<point x="256" y="-12" type="curve" smooth="yes"/>
			<point x="381" y="-12"/>
			<point x="466" y="95"/>
			<point x="466" y="251" type="curve" smooth="yes"/>
			<point x="466" y="418"/>
			<point x="385" y="515"/>
			<point x="268" y="515" type="curve" smooth="yes"/>
			<point x="197" y="515"/>
			<point x="156" y="481"/>
			<point x="135" y="409" type="curve"/>
			<point x="126" y="409" type="line"/>
			<point x="138" y="592"/>
			<point x="170" y="646"/>
			<point x="275" y="656" type="curve" smooth="yes"/>
			<point x="430" y="670" type="line"/>
			<point x="430" y="748" type="line"/>
			<point x="283" y="735" type="line" smooth="yes"/>
			<point x="113" y="720"/>
			<point x="45" y="604"/>
			<point x="45" y="305" type="curve" smooth="yes"/>
			<point x="45" y="227"/>
			<point x="55" y="167"/>
			<point x="73" y="118" type="curve" smooth="yes"/>
			<point x="107" y="27"/>
			<point x="172" y="-12"/>
		</contour>
		<contour>
			<point x="259" y="56" type="curve" smooth="yes"/>
			<point x="179" y="56"/>
			<point x="127" y="113"/>
			<point x="127" y="225" type="curve" smooth="yes"/>
			<point x="127" y="315" type="line" smooth="yes"/>
			<point x="127" y="394"/>
			<point x="169" y="447"/>
			<point x="252" y="447" type="curve" smooth="yes"/>
			<point x="332" y="447"/>
			<point x="384" y="391"/>
			<point x="384" y="279" type="curve" smooth="yes"/>
			<point x="384" y="216" type="line" smooth="yes"/>
			<point x="384" y="112"/>
			<point x="331" y="56"/>
		</contour>
	</outline>
</glyph>
<glyph name="uni0432" format="2">
	<advance width="504"/>
	<unicode hex="0432"/>
	<outline>
		<contour>
			<point x="75" y="0" type="line"/>
			<point x="323" y="0" type="line" smooth="yes"/>
			<point x="402" y="0"/>
			<point x="451" y="70"/>
			<point x="451" y="153" type="curve" smooth="yes"/>
			<point x="451" y="218"/>
			<point x="415" y="265"/>
			<point x="343" y="268" type="curve"/>
			<point x="343" y="278" type="line"/>
			<point x="403" y="284"/>
			<point x="434" y="321"/>
			<point x="434" y="385" type="curve" smooth="yes"/>
			<point x="434" y="464"/>
			<point x="388" y="515"/>
			<point x="312" y="515" type="curve" smooth="yes"/>
			<point x="75" y="515" type="line"/>
		</contour>
		<contour>
			<point x="152" y="64" type="line"/>
			<point x="152" y="236" type="line"/>
			<point x="301" y="236" type="line" smooth="yes"/>
			<point x="342" y="236"/>
			<point x="369" y="209"/>
			<point x="369" y="161" type="curve" smooth="yes"/>
			<point x="369" y="138" type="line" smooth="yes"/>
			<point x="369" y="91"/>
			<point x="342" y="64"/>
			<point x="301" y="64" type="curve" smooth="yes"/>
		</contour>
		<contour>
			<point x="152" y="298" type="line"/>
			<point x="152" y="452" type="line"/>
			<point x="291" y="452" type="line" smooth="yes"/>
			<point x="329" y="452"/>
			<point x="352" y="428"/>
			<point x="352" y="387" type="curve" smooth="yes"/>
			<point x="352" y="364" type="line" smooth="yes"/>
			<point x="352" y="323"/>
			<point x="330" y="298"/>
			<point x="291" y="298" type="curve" smooth="yes"/>
		</contour>
	</outline>
</glyph>
<glyph name="uni0433" format="2">
	<advance width="392"/>
	<unicode hex="0433"/>
	<anchor x="223" y="540" name="top"/>
	<outline>
		<contour>
			<point x="75" y="0" type="line"/>
			<point x="152" y="0" type="line"/>
			<point x="152" y="448" type="line"/>
			<point x="371" y="448" type="line"/>
			<point x="371" y="515" type="line"/>
			<point x="75" y="515" type="line"/>
		</contour>
	</outline>
</glyph>
<glyph name="uni0434" format="2">
	<advance width="542"/>
	<unicode hex="0434"/>
	<outline>
		<contour>
			<point x="7" y="-140" type="line"/>
			<point x="77" y="-140" type="line"/>
			<point x="77" y="0" type="line"/>
			<point x="449" y="0" type="line"/>
			<point x="449" y="-140" type="line"/>
			<point x="519" y="-140" type="line"/>
			<point x="519" y="67" type="line"/>
			<point x="441" y="67" type="line"/>
			<point x="441" y="515" type="line"/>
			<point x="122" y="515" type="line"/>
			<point x="122" y="366" type="line" smooth="yes"/>
			<point x="122" y="235"/>
			<point x="97" y="134"/>
			<point x="61" y="67" type="curve"/>
			<point x="7" y="67" type="line"/>
		</contour>
		<contour>
			<point x="143" y="67" type="line"/>
			<point x="171" y="128"/>
			<point x="195" y="224"/>
			<point x="195" y="363" type="curve" smooth="yes"/>
			<point x="195" y="448" type="line"/>
			<point x="364" y="448" type="line"/>
			<point x="364" y="67" type="line"/>
		</contour>
	</outline>
</glyph>
<glyph name="uni0438" format="2">
	<advance width="530"/>
	<unicode hex="0438"/>
	<anchor x="266" y="0" name="bottom"/>
	<anchor x="266" y="540" name="top"/>
	<outline>
		<contour>
			<point x="75" y="0" type="line"/>
			<point x="146" y="0" type="line"/>
			<point x="327" y="306" type="line"/>
			<point x="381" y="413" type="line"/>
			<point x="391" y="413" type="line"/>
			<point x="380" y="292" type="line"/>
			<point x="380" y="0" type="line"/>
			<point x="455" y="0" type="line"/>
			<point x="455" y="515" type="line"/>
			<point x="384" y="515" type="line"/>
			<point x="203" y="210" type="line"/>
			<point x="150" y="102" type="line"/>
			<point x="140" y="102" type="line"/>
			<point x="150" y="223" type="line"/>
			<point x="150" y="515" type="line"/>
			<point x="75" y="515" type="line"/>
		</contour>
	</outline>
</glyph>
<glyph name="uni0442" format="2">
	<advance width="426"/>
	<unicode hex="0442"/>
	<outline>
		<contour>
			<point x="175" y="0" type="line"/>
			<point x="252" y="0" type="line"/>
			<point x="252" y="448" type="line"/>
			<point x="408" y="448" type="line"/>
			<point x="408" y="515" type="line"/>
			<point x="18" y="515" type="line"/>
			<point x="18" y="448" type="line"/>
			<point x="175" y="448" type="line"/>
		</contour>
	</outline>
</glyph>
<glyph name="uni0444" format="2">
	<advance width="679"/>
	<unicode hex="0444"/>
	<outline>
		<contour>
			<point x="301" y="-200" type="line"/>
			<point x="378" y="-200" type="line"/>
			<point x="378" y="55" type="line"/>
			<point x="389" y="55" type="line"/>
			<point x="404" y="15"/>
			<point x="434" y="-12"/>
			<point x="480" y="-12" type="curve" smooth="yes"/>
			<point x="583" y="-12"/>
			<point x="634" y="76"/>
			<point x="634" y="258" type="curve" smooth="yes"/>
			<point x="634" y="440"/>
			<point x="583" y="527"/>
			<point x="480" y="527" type="curve" smooth="yes"/>
			<point x="435" y="527"/>
			<point x="404" y="501"/>
			<point x="389" y="461" type="curve"/>
			<point x="378" y="461" type="line"/>
			<point x="378" y="710" type="line"/>
			<point x="301" y="710" type="line"/>
			<point x="301" y="461" type="line"/>
			<point x="289" y="461" type="line"/>
			<point x="275" y="501"/>
			<point x="244" y="527"/>
			<point x="199" y="527" type="curve" smooth="yes"/>
			<point x="96" y="527"/>
			<point x="45" y="440"/>
			<point x="45" y="258" type="curve" smooth="yes"/>
			<point x="45" y="75"/>
			<point x="96" y="-12"/>
			<point x="199" y="-12" type="curve" smooth="yes"/>
			<point x="245" y="-12"/>
			<point x="275" y="15"/>
			<point x="289" y="55" type="curve"/>
			<point x="301" y="55" type="line"/>
		</contour>
		<contour>
			<point x="220" y="56" type="curve" smooth="yes"/>
			<point x="155" y="56"/>
			<point x="127" y="102"/>
			<point x="127" y="215" type="curve" smooth="yes"/>
			<point x="127" y="301" type="line" smooth="yes"/>
			<point x="127" y="413"/>
			<point x="155" y="459"/>
			<point x="220" y="459" type="curve" smooth="yes"/>
			<point x="275" y="459"/>
			<point x="302" y="434"/>
			<point x="302" y="387" type="curve" smooth="yes"/>
			<point x="302" y="128" type="line" smooth="yes"/>
			<point x="302" y="82"/>
			<point x="276" y="56"/>
		</contour>
		<contour>
			<point x="458" y="56" type="curve" smooth="yes"/>
			<point x="403" y="56"/>
			<point x="377" y="82"/>
			<point x="377" y="128" type="curve" smooth="yes"/>
			<point x="377" y="387" type="line" smooth="yes"/>
			<point x="377" y="433"/>
			<point x="403" y="459"/>
			<point x="458" y="459" type="curve" smooth="yes"/>
			<point x="524" y="459"/>
			<point x="552" y="413"/>
			<point x="552" y="301" type="curve" smooth="yes"/>
			<point x="552" y="215" type="line" smooth="yes"/>
			<point x="552" y="101"/>
			<point x="523" y="56"/>
		</contour>
	</outline>
</glyph>
<glyph name="uni0447" format="2">
	<advance width="487"/>
	<unicode hex="0447"/>
	<anchor x="228" y="540" name="top"/>
	<outline>
		<contour>
			<point x="335" y="0" type="line"/>
			<point x="412" y="0" type="line"/>
			<point x="412" y="515" type="line"/>
			<point x="335" y="515" type="line"/>
			<point x="335" y="312" type="line" smooth="yes"/>
			<point x="335" y="268"/>
			<point x="286" y="245"/>
			<point x="220" y="245" type="curve" smooth="yes"/>
			<point x="154" y="245"/>
			<point x="122" y="277"/>
			<point x="122" y="342" type="curve" smooth="yes"/>
			<point x="122" y="515" type="line"/>
			<point x="45" y="515" type="line"/>
			<point x="45" y="335" type="line" smooth="yes"/>
			<point x="45" y="229"/>
			<point x="100" y="176"/>
			<point x="196" y="176" type="curve" smooth="yes"/>
			<point x="265" y="176"/>
			<point x="302" y="203"/>
			<point x="322" y="239" type="curve"/>
			<point x="335" y="239" type="line"/>
		</contour>
	</outline>
</glyph>
<glyph name="uni0448" format="2">
	<advance width="721"/>
	<unicode hex="0448"/>
	<outline>
		<contour>
			<point x="75" y="0" type="line"/>
			<point x="646" y="0" type="line"/>
			<point x="646" y="515" type="line"/>
			<point x="569" y="515" type="line"/>
			<point x="569" y="67" type="line"/>
			<point x="399" y="67" type="line"/>
			<point x="399" y="515" type="line"/>
			<point x="322" y="515" type="line"/>
			<point x="322" y="67" type="line"/>
			<point x="152" y="67" type="line"/>
			<point x="152" y="515" type="line"/>
			<point x="75" y="515" type="line"/>
		</contour>
	</outline>
</glyph>
<glyph name="uni0449" format="2">
	<advance width="747"/>
	<unicode hex="0449"/>
	<outline>
		<contour>
			<point x="653" y="-140" type="line"/>
			<point x="724" y="-140" type="line"/>
			<point x="724" y="67" type="line"/>
			<point x="646" y="67" type="line"/>
			<point x="646" y="515" type="line"/>
			<point x="569" y="515" type="line"/>
			<point x="569" y="67" type="line"/>
			<point x="399" y="67" type="line"/>
			<point x="399" y="515" type="line"/>
			<point x="322" y="515" type="line"/>
			<point x="322" y="67" type="line"/>
			<point x="152" y="67" type="line"/>
			<point x="152" y="515" type="line"/>
			<point x="75" y="515" type="line"/>
			<point x="75" y="0" type="line"/>
			<point x="653" y="0" type="line"/>
		</contour>
	</outline>
</glyph>
<glyph name="uni0452" format="2">
	<advance width="514"/>
	<unicode hex="0452"/>
	<outline>
		<contour>
			<point x="290" y="-200" type="line"/>
			<point x="340" y="-200" type="line" smooth="yes"/>
			<point x="410" y="-200"/>
			<point x="443" y="-155"/>
			<point x="443" y="-87" type="curve" smooth="yes"/>
			<point x="442" y="336" type="line" smooth="yes"/>
			<point x="442" y="466"/>
			<point x="386" y="528"/>
			<point x="294" y="528" type="curve" smooth="yes"/>
			<point x="222" y="528"/>
			<point x="182" y="495"/>
			<point x="162" y="432" type="curve"/>
			<point x="152" y="432" type="line"/>
			<point x="152" y="609" type="line"/>
			<point x="287" y="609" type="line"/>
			<point x="287" y="669" type="line"/>
			<point x="152" y="669" type="line"/>
			<point x="152" y="740" type="line"/>
			<point x="75" y="740" type="line"/>
			<point x="75" y="669" type="line"/>
			<point x="18" y="669" type="line"/>
			<point x="18" y="609" type="line"/>
			<point x="75" y="609" type="line"/>
			<point x="75" y="0" type="line" name="hr00"/>
			<point x="152" y="0" type="line"/>
			<point x="152" y="352" type="line" smooth="yes"/>
			<point x="152" y="419"/>
			<point x="201" y="459"/>
			<point x="262" y="459" type="curve" smooth="yes"/>
			<point x="332" y="459"/>
			<point x="366" y="413"/>
			<point x="366" y="331" type="curve" smooth="yes"/>
			<point x="366" y="-133" type="line"/>
			<point x="290" y="-133" type="line"/>
		</contour>
	</outline>
</glyph>
<glyph name="uni0454" format="2">
	<advance width="461"/>
	<unicode hex="0454"/>
	<outline>
		<contour>
			<point x="253" y="-12" type="curve" smooth="yes"/>
			<point x="340" y="-12"/>
			<point x="403" y="30"/>
			<point x="436" y="109" type="curve"/>
			<point x="380" y="146" type="line"/>
			<point x="354" y="84"/>
			<point x="311" y="56"/>
			<point x="253" y="56" type="curve" smooth="yes"/>
			<point x="165" y="56"/>
			<point x="123" y="122"/>
			<point x="123" y="215" type="curve" smooth="yes"/>
			<point x="123" y="228" type="line"/>
			<point x="321" y="228" type="line"/>
			<point x="321" y="293" type="line"/>
			<point x="123" y="293" type="line"/>
			<point x="123" y="301" type="line" smooth="yes"/>
			<point x="123" y="393"/>
			<point x="165" y="459"/>
			<point x="253" y="459" type="curve" smooth="yes"/>
			<point x="314" y="459"/>
			<point x="351" y="428"/>
			<point x="368" y="375" type="curve"/>
			<point x="432" y="408" type="line"/>
			<point x="404" y="478"/>
			<point x="349" y="527"/>
			<point x="253" y="527" type="curve" smooth="yes"/>
			<point x="116" y="527"/>
			<point x="41" y="423"/>
			<point x="41" y="258" type="curve" smooth="yes"/>
			<point x="41" y="93"/>
			<point x="116" y="-12"/>
		</contour>
	</outline>
</glyph>
<glyph name="uni0459" format="2">
	<advance width="729"/>
	<unicode hex="0459"/>
	<outline>
		<contour>
			<point x="8" y="0" type="line"/>
			<point x="37" y="0" type="line" smooth="yes"/>
			<point x="74" y="0"/>
			<point x="104" y="8"/>
			<point x="127" y="33" type="curve" smooth="yes"/>
			<point x="161" y="70"/>
			<point x="191" y="159"/>
			<point x="191" y="366" type="curve" smooth="yes"/>
			<point x="191" y="448" type="line"/>
			<point x="342" y="448" type="line"/>
			<point x="342" y="0" type="line"/>
			<point x="543" y="0" type="line" smooth="yes"/>
			<point x="637" y="0"/>
			<point x="696" y="61"/>
			<point x="696" y="163" type="curve" smooth="yes"/>
			<point x="696" y="265"/>
			<point x="635" y="327"/>
			<point x="542" y="327" type="curve" smooth="yes"/>
			<point x="419" y="327" type="line"/>
			<point x="419" y="515" type="line"/>
			<point x="118" y="515" type="line"/>
			<point x="118" y="368" type="line" smooth="yes"/>
			<point x="118" y="194"/>
			<point x="99" y="115"/>
			<point x="69" y="67" type="curve"/>
			<point x="8" y="67" type="line"/>
		</contour>
		<contour>
			<point x="419" y="67" type="line"/>
			<point x="419" y="260" type="line"/>
			<point x="531" y="260" type="line" smooth="yes"/>
			<point x="583" y="260"/>
			<point x="614" y="238"/>
			<point x="614" y="185" type="curve" smooth="yes"/>
			<point x="614" y="143" type="line" smooth="yes"/>
			<point x="614" y="90"/>
			<point x="583" y="67"/>
			<point x="531" y="67" type="curve" smooth="yes"/>
		</contour>
	</outline>
</glyph>
<glyph name="uni0462" format="2">
	<advance width="606"/>
	<unicode hex="0462"/>
	<outline>
		<contour>
			<point x="120" y="0" type="line"/>
			<point x="395" y="0" type="line"/>
			<point x="507" y="0"/>
			<point x="571" y="77"/>
			<point x="571" y="208" type="curve" smooth="yes"/>
			<point x="571" y="340"/>
			<point x="507" y="417"/>
			<point x="395" y="417" type="curve" smooth="yes"/>
			<point x="201" y="417" type="line"/>
			<point x="201" y="537" type="line"/>
			<point x="377" y="537" type="line"/>
			<point x="377" y="609" type="line"/>
			<point x="201" y="609" type="line"/>
			<point x="201" y="698" type="line"/>
			<point x="120" y="698" type="line"/>
			<point x="120" y="609" type="line"/>
			<point x="23" y="609" type="line"/>
			<point x="23" y="537" type="line"/>
			<point x="120" y="537" type="line"/>
		</contour>
		<contour>
			<point x="201" y="71" type="line"/>
			<point x="201" y="346" type="line"/>
			<point x="393" y="346" type="line" smooth="yes"/>
			<point x="451" y="346"/>
			<point x="486" y="308"/>
			<point x="486" y="234" type="curve" smooth="yes"/>
			<point x="486" y="183" type="line" smooth="yes"/>
			<point x="486" y="109"/>
			<point x="451" y="71"/>
			<point x="393" y="71" type="curve" smooth="yes"/>
		</contour>
	</outline>
</glyph>
<glyph name="uni0463" format="2">
	<advance width="495"/>
	<unicode hex="0463"/>
	<outline>
		<contour>
			<point x="100" y="0" type="line"/>
			<point x="309" y="0" type="line" smooth="yes"/>
			<point x="403" y="0"/>
			<point x="462" y="61"/>
			<point x="462" y="163" type="curve" smooth="yes"/>
			<point x="462" y="264"/>
			<point x="402" y="327"/>
			<point x="308" y="327" type="curve" smooth="yes"/>
			<point x="177" y="327" type="line"/>
			<point x="177" y="448" type="line"/>
			<point x="319" y="448" type="line"/>
			<point x="319" y="515" type="line"/>
			<point x="177" y="515" type="line"/>
			<point x="177" y="710" type="line"/>
			<point x="100" y="710" type="line"/>
			<point x="100" y="515" type="line"/>
			<point x="24" y="515" type="line"/>
			<point x="24" y="448" type="line"/>
			<point x="100" y="448" type="line"/>
		</contour>
		<contour>
			<point x="177" y="67" type="line"/>
			<point x="177" y="260" type="line"/>
			<point x="297" y="260" type="line" smooth="yes"/>
			<point x="349" y="260"/>
			<point x="380" y="238"/>
			<point x="380" y="185" type="curve" smooth="yes"/>
			<point x="380" y="143" type="line" smooth="yes"/>
			<point x="380" y="90"/>
			<point x="349" y="67"/>
			<point x="297" y="67" type="curve" smooth="yes"/>
		</contour>
	</outline>
</glyph>
<glyph name="uni0472" format="2">
	<advance width="638"/>
	<unicode hex="0472"/>
	<anchor x="319" y="0" name="bottom"/>
	<anchor x="319" y="698" name="top"/>
	<outline>
		<contour>
			<point x="319" y="-12" type="curve" smooth="yes"/>
			<point x="482" y="-12"/>
			<point x="586" y="116"/>
			<point x="586" y="349" type="curve" smooth="yes"/>
			<point x="586" y="582"/>
			<point x="482" y="710"/>
			<point x="319" y="710" type="curve" smooth="yes"/>
			<point x="157" y="710"/>
			<point x="52" y="583"/>
			<point x="52" y="349" type="curve" smooth="yes"/>
			<point x="52" y="115"/>
			<point x="157" y="-12"/>
		</contour>
		<contour>
			<point x="319" y="60" type="curve" smooth="yes"/>
			<point x="212" y="60"/>
			<point x="137" y="152"/>
			<point x="137" y="293" type="curve" smooth="yes"/>
			<point x="137" y="332" type="line"/>
			<point x="111" y="289" type="line"/>
			<point x="149" y="335"/>
			<point x="176" y="352"/>
			<point x="213" y="352" type="curve" smooth="yes"/>
			<point x="248" y="352"/>
			<point x="277" y="341"/>
			<point x="311" y="322" type="curve" smooth="yes"/>
			<point x="351" y="300"/>
			<point x="377" y="289"/>
			<point x="421" y="289" type="curve" smooth="yes"/>
			<point x="462" y="289"/>
			<point x="503" y="313"/>
			<point x="516" y="338" type="curve"/>
			<point x="501" y="337" type="line"/>
			<point x="501" y="293" type="line" smooth="yes"/>
			<point x="501" y="151"/>
			<point x="426" y="60"/>
		</contour>
		<contour>
			<point x="319" y="638" type="curve" smooth="yes"/>
			<point x="426" y="638"/>
			<point x="501" y="547"/>
			<point x="501" y="405" type="curve" smooth="yes"/>
			<point x="501" y="367" type="line"/>
			<point x="527" y="417" type="line"/>
			<point x="489" y="370"/>
			<point x="461" y="353"/>
			<point x="426" y="353" type="curve" smooth="yes"/>
			<point x="392" y="353"/>
			<point x="363" y="364"/>
			<point x="329" y="383" type="curve" smooth="yes"/>
			<point x="286" y="407"/>
			<point x="260" y="417"/>
			<point x="217" y="417" type="curve" smooth="yes"/>
			<point x="176" y="417"/>
			<point x="139" y="394"/>
			<point x="122" y="369" type="curve"/>
			<point x="137" y="363" type="line"/>
			<point x="137" y="405" type="line" smooth="yes"/>
			<point x="137" y="546"/>
			<point x="212" y="638"/>
		</contour>
	</outline>
</glyph>
<glyph name="uni0473" format="2">
	<advance width="503"/>
	<unicode hex="0473"/>
	<anchor x="252" y="0" name="bottom"/>
	<anchor x="252" y="540" name="top"/>
	<outline>
		<contour>
			<point x="252" y="-12" type="curve" smooth="yes"/>
			<point x="377" y="-12"/>
			<point x="462" y="94"/>
			<point x="462" y="258" type="curve" smooth="yes"/>
			<point x="462" y="422"/>
			<point x="377" y="527"/>
			<point x="252" y="527" type="curve" smooth="yes"/>
			<point x="126" y="527"/>
			<point x="41" y="422"/>
			<point x="41" y="258" type="curve" smooth="yes"/>
			<point x="41" y="93"/>
			<point x="127" y="-12"/>
		</contour>
		<contour>
			<point x="252" y="56" type="curve" smooth="yes"/>
			<point x="176" y="56"/>
			<point x="123" y="111"/>
			<point x="123" y="221" type="curve" smooth="yes"/>
			<point x="123" y="231" type="line"/>
			<point x="141" y="250"/>
			<point x="157" y="257"/>
			<point x="179" y="257" type="curve" smooth="yes"/>
			<point x="201" y="257"/>
			<point x="223" y="247"/>
			<point x="245" y="234" type="curve" smooth="yes"/>
			<point x="273" y="217"/>
			<point x="293" y="208"/>
			<point x="323" y="208" type="curve" smooth="yes"/>
			<point x="343" y="208"/>
			<point x="370" y="219"/>
			<point x="381" y="232" type="curve"/>
			<point x="381" y="221" type="line" smooth="yes"/>
			<point x="381" y="111"/>
			<point x="327" y="56"/>
		</contour>
		<contour>
			<point x="123" y="294" type="line" smooth="yes"/>
			<point x="123" y="404"/>
			<point x="176" y="459"/>
			<point x="252" y="459" type="curve" smooth="yes"/>
			<point x="327" y="459"/>
			<point x="380" y="405"/>
			<point x="381" y="294" type="curve" smooth="yes"/>
			<point x="381" y="292" type="line"/>
			<point x="361" y="271"/>
			<point x="343" y="266"/>
			<point x="324" y="266" type="curve" smooth="yes"/>
			<point x="304" y="266"/>
			<point x="283" y="274"/>
			<point x="260" y="288" type="curve" smooth="yes"/>
			<point x="231" y="305"/>
			<point x="212" y="315"/>
			<point x="181" y="315" type="curve" smooth="yes"/>
			<point x="160" y="315"/>
			<point x="134" y="304"/>
			<point x="123" y="291" type="curve"/>
		</contour>
	</outline>
</glyph>
<glyph name="uni0474" format="2">
	<advance width="615"/>
	<unicode hex="0474"/>
	<outline>
		<contour>
			<point x="323" y="0" type="line"/>
			<point x="503" y="629" type="line"/>
			<point x="588" y="629" type="line"/>
			<point x="588" y="698" type="line"/>
			<point x="505" y="698" type="line" smooth="yes"/>
			<point x="461" y="698"/>
			<point x="435" y="680"/>
			<point x="424" y="641" type="curve" smooth="yes"/>
			<point x="343" y="345" type="line"/>
			<point x="282" y="81" type="line"/>
			<point x="272" y="81" type="line"/>
			<point x="206" y="345" type="line"/>
			<point x="104" y="698" type="line"/>
			<point x="18" y="698" type="line"/>
			<point x="227" y="0" type="line"/>
		</contour>
	</outline>
</glyph>
<glyph name="uni0475" format="2">
	<advance width="485"/>
	<unicode hex="0475"/>
	<outline>
		<contour>
			<point x="268" y="0" type="line"/>
			<point x="395" y="448" type="line"/>
			<point x="461" y="448" type="line"/>
			<point x="461" y="515" type="line"/>
			<point x="402" y="515" type="line" smooth="yes"/>
			<point x="356" y="515"/>
			<point x="334" y="500"/>
			<point x="322" y="459" type="curve" smooth="yes"/>
			<point x="270" y="259" type="line"/>
			<point x="229" y="81" type="line"/>
			<point x="219" y="81" type="line"/>
			<point x="172" y="259" type="line"/>
			<point x="93" y="515" type="line"/>
			<point x="16" y="515" type="line"/>
			<point x="178" y="0" type="line"/>
		</contour>
	</outline>
</glyph>
<glyph name="uni0490" format="2">
	<advance width="450"/>
	<unicode hex="0490"/>
	<outline>
		<contour>
			<point x="83" y="0" type="line"/>
			<point x="164" y="0" type="line"/>
			<point x="164" y="627" type="line"/>
			<point x="427" y="627" type="line"/>
			<point x="427" y="848" type="line"/>
			<point x="353" y="848" type="line"/>
			<point x="353" y="698" type="line"/>
			<point x="83" y="698" type="line"/>
		</contour>
	</outline>
</glyph>
<glyph name="uni0492" format="2">
	<advance width="468"/>
	<unicode hex="0492"/>
	<outline>
		<contour>
			<point x="101" y="0" type="line"/>
			<point x="182" y="0" type="line"/>
			<point x="182" y="339" type="line"/>
			<point x="358" y="339" type="line"/>
			<point x="358" y="401" type="line"/>
			<point x="182" y="401" type="line"/>
			<point x="182" y="627" type="line"/>
			<point x="445" y="627" type="line"/>
			<point x="445" y="698" type="line"/>
			<point x="101" y="698" type="line"/>
			<point x="101" y="401" type="line"/>
			<point x="13" y="401" type="line"/>
			<point x="13" y="339" type="line"/>
			<point x="101" y="339" type="line"/>
		</contour>
	</outline>
</glyph>
<glyph name="uni0493" format="2">
	<advance width="408"/>
	<unicode hex="0493"/>
	<outline>
		<contour>
			<point x="92" y="0" type="line"/>
			<point x="169" y="0" type="line"/>
			<point x="169" y="231" type="line"/>
			<point x="313" y="231" type="line"/>
			<point x="313" y="291" type="line"/>
			<point x="169" y="291" type="line"/>
			<point x="169" y="448" type="line"/>
			<point x="387" y="448" type="line"/>
			<point x="387" y="515" type="line"/>
			<point x="92" y="515" type="line"/>
			<point x="92" y="291" type="line"/>
			<point x="26" y="291" type="line"/>
			<point x="26" y="231" type="line"/>
			<point x="92" y="231" type="line"/>
		</contour>
	</outline>
</glyph>
<glyph name="uni0494" format="2">
	<advance width="574"/>
	<unicode hex="0494"/>
	<outline>
		<contour>
			<point x="305" y="-164" type="line"/>
			<point x="347" y="-164" type="line" smooth="yes"/>
			<point x="450" y="-164"/>
			<point x="522" y="-78"/>
			<point x="522" y="82" type="curve" smooth="yes"/>
			<point x="522" y="154" type="line" smooth="yes"/>
			<point x="522" y="321"/>
			<point x="451" y="401"/>
			<point x="301" y="401" type="curve" smooth="yes"/>
			<point x="248" y="401"/>
			<point x="200" y="392"/>
			<point x="168" y="378" type="curve"/>
			<point x="164" y="378" type="line"/>
			<point x="164" y="627" type="line"/>
			<point x="427" y="627" type="line"/>
			<point x="427" y="698" type="line"/>
			<point x="83" y="698" type="line"/>
			<point x="83" y="0" type="line"/>
			<point x="164" y="0" type="line"/>
			<point x="164" y="307" type="line"/>
			<point x="194" y="321"/>
			<point x="244" y="330"/>
			<point x="297" y="330" type="curve" smooth="yes"/>
			<point x="392" y="330"/>
			<point x="442" y="277"/>
			<point x="442" y="154" type="curve" smooth="yes"/>
			<point x="442" y="82" type="line" smooth="yes"/>
			<point x="442" y="-9"/>
			<point x="419" y="-65"/>
			<point x="382" y="-93" type="curve"/>
			<point x="305" y="-93" type="line"/>
		</contour>
	</outline>
</glyph>
<glyph name="uni0495" format="2">
	<advance width="487"/>
	<unicode hex="0495"/>
	<outline>
		<contour>
			<point x="260" y="-200" type="line"/>
			<point x="308" y="-200" type="line" smooth="yes"/>
			<point x="392" y="-200"/>
			<point x="442" y="-137"/>
			<point x="442" y="-3" type="curve" smooth="yes"/>
			<point x="442" y="113" type="line" smooth="yes"/>
			<point x="442" y="246"/>
			<point x="390" y="298"/>
			<point x="291" y="298" type="curve" smooth="yes"/>
			<point x="223" y="298"/>
			<point x="184" y="271"/>
			<point x="162" y="235" type="curve"/>
			<point x="152" y="235" type="line"/>
			<point x="152" y="448" type="line"/>
			<point x="371" y="448" type="line"/>
			<point x="371" y="515" type="line"/>
			<point x="75" y="515" type="line"/>
			<point x="75" y="0" type="line"/>
			<point x="152" y="0" type="line"/>
			<point x="152" y="162" type="line" smooth="yes"/>
			<point x="152" y="206"/>
			<point x="201" y="229"/>
			<point x="267" y="229" type="curve" smooth="yes"/>
			<point x="337" y="229"/>
			<point x="365" y="197"/>
			<point x="365" y="106" type="curve" smooth="yes"/>
			<point x="365" y="9" type="line" smooth="yes"/>
			<point x="365" y="-65"/>
			<point x="355" y="-108"/>
			<point x="338" y="-133" type="curve"/>
			<point x="260" y="-133" type="line"/>
		</contour>
	</outline>
</glyph>
<glyph name="uni0497" format="2">
	<advance width="705"/>
	<unicode hex="0497"/>
	<outline>
		<contour>
			<point x="618" y="-140" type="line"/>
			<point x="688" y="-140" type="line"/>
			<point x="688" y="67" type="line"/>
			<point x="611" y="67" type="line"/>
			<point x="558" y="210" type="line" smooth="yes"/>
			<point x="546" y="244"/>
			<point x="525" y="260"/>
			<point x="502" y="261" type="curve"/>
			<point x="502" y="271" type="line"/>
			<point x="526" y="276"/>
			<point x="544" y="294"/>
			<point x="557" y="326" type="curve" smooth="yes"/>
			<point x="604" y="448" type="line"/>
			<point x="657" y="448" type="line"/>
			<point x="657" y="515" type="line"/>
			<point x="614" y="515" type="line" smooth="yes"/>
			<point x="577" y="515"/>
			<point x="549" y="497"/>
			<point x="531" y="454" type="curve" smooth="yes"/>
			<point x="469" y="299" type="line"/>
			<point x="389" y="299" type="line"/>
			<point x="389" y="515" type="line"/>
			<point x="312" y="515" type="line"/>
			<point x="312" y="299" type="line"/>
			<point x="231" y="299" type="line"/>
			<point x="169" y="454" type="line" smooth="yes"/>
			<point x="151" y="497"/>
			<point x="123" y="515"/>
			<point x="86" y="515" type="curve" smooth="yes"/>
			<point x="43" y="515" type="line"/>
			<point x="43" y="448" type="line"/>
			<point x="96" y="448" type="line"/>
			<point x="143" y="326" type="line" smooth="yes"/>
			<point x="156" y="293"/>
			<point x="175" y="276"/>
			<point x="198" y="271" type="curve"/>
			<point x="198" y="261" type="line"/>
			<point x="175" y="260"/>
			<point x="155" y="244"/>
			<point x="142" y="210" type="curve" smooth="yes"/>
			<point x="90" y="67" type="line"/>
			<point x="36" y="67" type="line"/>
			<point x="36" y="0" type="line"/>
			<point x="88" y="0" type="line" smooth="yes"/>
			<point x="121" y="0"/>
			<point x="149" y="15"/>
			<point x="169" y="67" type="curve" smooth="yes"/>
			<point x="231" y="233" type="line"/>
			<point x="312" y="233" type="line"/>
			<point x="312" y="0" type="line"/>
			<point x="389" y="0" type="line"/>
			<point x="389" y="233" type="line"/>
			<point x="469" y="233" type="line"/>
			<point x="531" y="67" type="line" smooth="yes"/>
			<point x="551" y="15"/>
			<point x="579" y="0"/>
			<point x="612" y="0" type="curve" smooth="yes"/>
			<point x="658" y="0" type="line"/>
			<point x="618" y="43" type="line"/>
		</contour>
	</outline>
</glyph>
<glyph name="uni0499" format="2">
	<advance width="454"/>
	<unicode hex="0499"/>
	<outline>
		<contour>
			<point x="175" y="-140" type="line"/>
			<point x="245" y="-140" type="line"/>
			<point x="245" y="-10" type="line"/>
			<point x="343" y="1"/>
			<point x="401" y="62"/>
			<point x="401" y="149" type="curve" smooth="yes"/>
			<point x="401" y="211"/>
			<point x="373" y="253"/>
			<point x="301" y="266" type="curve"/>
			<point x="301" y="276" type="line"/>
			<point x="361" y="292"/>
			<point x="391" y="325"/>
			<point x="391" y="389" type="curve" smooth="yes"/>
			<point x="391" y="475"/>
			<point x="332" y="527"/>
			<point x="212" y="527" type="curve" smooth="yes"/>
			<point x="122" y="527"/>
			<point x="65" y="486"/>
			<point x="35" y="426" type="curve"/>
			<point x="85" y="382" type="line"/>
			<point x="109" y="429"/>
			<point x="148" y="459"/>
			<point x="208" y="459" type="curve" smooth="yes"/>
			<point x="280" y="459"/>
			<point x="309" y="430"/>
			<point x="309" y="386" type="curve" smooth="yes"/>
			<point x="309" y="373" type="line" smooth="yes"/>
			<point x="309" y="326"/>
			<point x="277" y="298"/>
			<point x="222" y="298" type="curve" smooth="yes"/>
			<point x="131" y="298" type="line"/>
			<point x="131" y="234" type="line"/>
			<point x="231" y="234" type="line" smooth="yes"/>
			<point x="287" y="234"/>
			<point x="319" y="205"/>
			<point x="319" y="152" type="curve" smooth="yes"/>
			<point x="319" y="140" type="line" smooth="yes"/>
			<point x="319" y="91"/>
			<point x="282" y="56"/>
			<point x="210" y="56" type="curve" smooth="yes"/>
			<point x="150" y="56"/>
			<point x="105" y="87"/>
			<point x="81" y="138" type="curve"/>
			<point x="25" y="92" type="line"/>
			<point x="56" y="36"/>
			<point x="99" y="-2"/>
			<point x="175" y="-10" type="curve"/>
		</contour>
	</outline>
</glyph>
<glyph name="uni0525" format="2">
	<advance width="543"/>
	<unicode hex="0525"/>
	<outline>
		<contour>
			<point x="75" y="0" type="line"/>
			<point x="152" y="0" type="line"/>
			<point x="152" y="448" type="line"/>
			<point x="365" y="448" type="line"/>
			<point x="365" y="0" type="line"/>
			<point x="449" y="0" type="line"/>
			<point x="449" y="-140" type="line"/>
			<point x="520" y="-140" type="line"/>
			<point x="520" y="67" type="line"/>
			<point x="442" y="67" type="line"/>
			<point x="442" y="515" type="line"/>
			<point x="75" y="515" type="line"/>
		</contour>
	</outline>
</glyph>
<glyph name="Delta" format="2">
	<advance width="580"/>
	<unicode hex="2206"/>
	<outline>
		<contour>
			<point x="44" y="0" type="line" name="hr00"/>
			<point x="536" y="0" type="line"/>
			<point x="536" y="68" type="line"/>
			<point x="336" y="698" type="line"/>
			<point x="244" y="698" type="line"/>
			<point x="44" y="68" type="line"/>
		</contour>
		<contour>
			<point x="452" y="70" type="line"/>
			<point x="126" y="70" type="line"/>
			<point x="240" y="451" type="line"/>
			<point x="284" y="628" type="line"/>
			<point x="294" y="628" type="line"/>
			<point x="338" y="451" type="line"/>
		</contour>
	</outline>
</glyph>
<glyph name="acute.case" format="2">
	<advance width="540"/>
	<anchor x="270" y="698" name="_top"/>
	<outline>
		<contour>
			<point x="374" y="913" type="line" name="hr00"/>
			<point x="305" y="949" type="line"/>
			<point x="228" y="780" type="line"/>
			<point x="277" y="755" type="line"/>
		</contour>
	</outline>
</glyph>
<glyph name="alpha.alt01" format="2">
	<advance width="529"/>
	<anchor x="251" y="0" name="bottom"/>
	<anchor x="501" y="0" name="bottomright"/>
	<anchor x="251" y="540" name="top"/>
	<outline>
		<contour>
			<point x="501" y="67" type="line"/>
			<point x="448" y="67" type="line"/>
			<point x="448" y="515" type="line"/>
			<point x="371" y="515" type="line"/>
			<point x="371" y="432" type="line"/>
			<point x="362" y="432" type="line"/>
			<point x="342" y="496"/>
			<point x="296" y="527"/>
			<point x="232" y="527" type="curve" smooth="yes"/>
			<point x="116" y="527"/>
			<point x="44" y="423"/>
			<point x="44" y="258" type="curve" smooth="yes"/>
			<point x="44" y="93"/>
			<point x="116" y="-12"/>
			<point x="232" y="-12" type="curve" smooth="yes"/>
			<point x="296" y="-12"/>
			<point x="339" y="21"/>
			<point x="362" y="84" type="curve"/>
			<point x="412" y="84" type="line"/>
			<point x="371" y="93" type="line"/>
			<point x="371" y="86" type="line" smooth="yes"/>
			<point x="371" y="34"/>
			<point x="398" y="0"/>
			<point x="452" y="0" type="curve" smooth="yes"/>
			<point x="501" y="0" type="line"/>
		</contour>
		<contour>
			<point x="254" y="57" type="curve" smooth="yes"/>
			<point x="176" y="57"/>
			<point x="126" y="120"/>
			<point x="126" y="215" type="curve" smooth="yes"/>
			<point x="126" y="301" type="line" smooth="yes"/>
			<point x="126" y="395"/>
			<point x="176" y="458"/>
			<point x="254" y="458" type="curve" smooth="yes"/>
			<point x="319" y="458"/>
			<point x="371" y="415"/>
			<point x="371" y="357" type="curve" smooth="yes"/>
			<point x="371" y="164" type="line" smooth="yes"/>
			<point x="371" y="96"/>
			<point x="318" y="57"/>
		</contour>
	</outline>
</glyph>
<glyph name="breve.cyrl" format="2">
	<advance width="600"/>
	<anchor x="300" y="540" name="_top"/>
	<outline>
		<contour>
			<point x="300" y="596" type="curve" smooth="yes" name="hr00"/>
			<point x="364" y="596"/>
			<point x="400" y="627"/>
			<point x="422" y="674" type="curve" smooth="yes"/>
			<point x="440" y="712" type="line"/>
			<point x="378" y="743" type="line"/>
			<point x="346" y="661" type="line"/>
			<point x="332" y="657"/>
			<point x="314" y="655"/>
			<point x="300" y="655" type="curve" smooth="yes"/>
			<point x="286" y="655"/>
			<point x="268" y="657"/>
			<point x="254" y="661" type="curve"/>
			<point x="222" y="743" type="line"/>
			<point x="160" y="712" type="line"/>
			<point x="178" y="674" type="line" smooth="yes"/>
			<point x="200" y="627"/>
			<point x="236" y="596"/>
		</contour>
	</outline>
</glyph>
<glyph name="breve.cyrl_case" format="2">
	<advance width="600"/>
	<anchor x="300" y="710" name="_top"/>
	<outline>
		<contour>
			<point x="300" y="766" type="curve" smooth="yes" name="hr00"/>
			<point x="364" y="766"/>
			<point x="400" y="797"/>
			<point x="422" y="844" type="curve" smooth="yes"/>
			<point x="440" y="882" type="line"/>
			<point x="378" y="913" type="line"/>
			<point x="346" y="831" type="line"/>
			<point x="332" y="827"/>
			<point x="314" y="825"/>
			<point x="300" y="825" type="curve" smooth="yes"/>
			<point x="286" y="825"/>
			<point x="268" y="827"/>
			<point x="254" y="831" type="curve"/>
			<point x="222" y="913" type="line"/>
			<point x="160" y="882" type="line"/>
			<point x="178" y="844" type="line" smooth="yes"/>
			<point x="200" y="797"/>
			<point x="236" y="766"/>
		</contour>
	</outline>
</glyph>
<glyph name="macron.case" format="2">
	<advance width="540"/>
	<anchor x="270" y="698" name="_top"/>
	<outline>
		<contour>
			<point x="143" y="809" type="line" name="hr00"/>
			<point x="397" y="809" type="line"/>
			<point x="397" y="873" type="line"/>
			<point x="143" y="873" type="line"/>
		</contour>
	</outline>
</glyph>
<glyph name="uni03BC" format="2">
	<advance width="523"/>
	<outline>
		<contour>
			<point x="152" y="-200" type="line"/>
			<point x="152" y="-64" type="line"/>
			<point x="127" y="84" type="line"/>
			<point x="139" y="84" type="line"/>
			<point x="155" y="25"/>
			<point x="193" y="-12"/>
			<point x="250" y="-12" type="curve" smooth="yes"/>
			<point x="306" y="-12"/>
			<point x="342" y="24"/>
			<point x="359" y="84" type="curve"/>
			<point x="406" y="84" type="line"/>
			<point x="369" y="89" type="line"/>
			<point x="369" y="84" type="line" smooth="yes"/>
			<point x="369" y="36"/>
			<point x="393" y="0"/>
			<point x="446" y="0" type="curve" smooth="yes"/>
			<point x="495" y="0" type="line"/>
			<point x="495" y="67" type="line"/>
			<point x="442" y="67" type="line"/>
			<point x="442" y="515" type="line"/>
			<point x="365" y="515" type="line"/>
			<point x="365" y="159" type="line" smooth="yes"/>
			<point x="365" y="90"/>
			<point x="310" y="57"/>
			<point x="255" y="57" type="curve" smooth="yes"/>
			<point x="187" y="57"/>
			<point x="152" y="106"/>
			<point x="152" y="198" type="curve" smooth="yes"/>
			<point x="152" y="515" type="line"/>
			<point x="75" y="515" type="line"/>
			<point x="75" y="-200" type="line"/>
		</contour>
	</outline>
</glyph>
<glyph name="uni040A" format="2">
	<advance width="934"/>
	<outline>
		<contour>
			<point x="83" y="0" type="line"/>
			<point x="164" y="0" type="line"/>
			<point x="164" y="318" type="line"/>
			<point x="457" y="318" type="line"/>
			<point x="457" y="0" type="line"/>
			<point x="722" y="0" type="line" smooth="yes"/>
			<point x="835" y="0"/>
			<point x="899" y="78"/>
			<point x="899" y="208" type="curve" smooth="yes"/>
			<point x="899" y="339"/>
			<point x="834" y="416"/>
			<point x="722" y="416" type="curve" smooth="yes"/>
			<point x="538" y="416" type="line"/>
			<point x="538" y="698" type="line"/>
			<point x="457" y="698" type="line"/>
			<point x="457" y="389" type="line"/>
			<point x="164" y="389" type="line"/>
			<point x="164" y="698" type="line"/>
			<point x="83" y="698" type="line"/>
		</contour>
		<contour>
			<point x="538" y="71" type="line"/>
			<point x="538" y="345" type="line"/>
			<point x="720" y="345" type="line" smooth="yes"/>
			<point x="778" y="345"/>
			<point x="813" y="307"/>
			<point x="813" y="234" type="curve" smooth="yes"/>
			<point x="813" y="182" type="line" smooth="yes"/>
			<point x="813" y="109"/>
			<point x="778" y="71"/>
			<point x="720" y="71" type="curve" smooth="yes"/>
		</contour>
	</outline>
</glyph>
<glyph name="uni040B" format="2">
	<advance width="718"/>
	<outline>
		<contour>
			<point x="217" y="0" type="line"/>
			<point x="298" y="0" type="line"/>
			<point x="298" y="343" type="line"/>
			<point x="328" y="357"/>
			<point x="379" y="366"/>
			<point x="436" y="366" type="curve" smooth="yes"/>
			<point x="535" y="366"/>
			<point x="585" y="313"/>
			<point x="585" y="190" type="curve" smooth="yes"/>
			<point x="585" y="0" type="line"/>
			<point x="666" y="0" type="line"/>
			<point x="666" y="190" type="line" smooth="yes"/>
			<point x="666" y="358"/>
			<point x="594" y="437"/>
			<point x="440" y="437" type="curve" smooth="yes"/>
			<point x="383" y="437"/>
			<point x="335" y="428"/>
			<point x="302" y="414" type="curve"/>
			<point x="298" y="414" type="line"/>
			<point x="298" y="627" type="line"/>
			<point x="495" y="627" type="line"/>
			<point x="495" y="698" type="line"/>
			<point x="20" y="698" type="line"/>
			<point x="20" y="627" type="line"/>
			<point x="217" y="627" type="line"/>
		</contour>
	</outline>
</glyph>
<glyph name="uni040F" format="2">
	<advance width="626"/>
	<outline>
		<contour>
			<point x="276" y="-150" type="line"/>
			<point x="350" y="-150" type="line"/>
			<point x="350" y="0" type="line"/>
			<point x="543" y="0" type="line"/>
			<point x="543" y="698" type="line"/>
			<point x="462" y="698" type="line"/>
			<point x="462" y="71" type="line"/>
			<point x="164" y="71" type="line"/>
			<point x="164" y="698" type="line"/>
			<point x="83" y="698" type="line"/>
			<point x="83" y="0" type="line"/>
			<point x="276" y="0" type="line"/>
		</contour>
	</outline>
</glyph>
<glyph name="uni041A" format="2">
	<advance width="598"/>
	<anchor x="292" y="698" name="top"/>
	<outline>
		<contour>
			<point x="83" y="0" type="line"/>
			<point x="164" y="0" type="line"/>
			<point x="164" y="318" type="line"/>
			<point x="283" y="318" type="line"/>
			<point x="419" y="63" type="line" smooth="yes"/>
			<point x="446" y="13"/>
			<point x="472" y="0"/>
			<point x="503" y="0" type="curve" smooth="yes"/>
			<point x="560" y="0" type="line"/>
			<point x="560" y="71" type="line"/>
			<point x="505" y="71" type="line"/>
			<point x="391" y="289" type="line" smooth="yes"/>
			<point x="368" y="333"/>
			<point x="349" y="345"/>
			<point x="322" y="348" type="curve"/>
			<point x="322" y="359" type="line"/>
			<point x="346" y="364"/>
			<point x="356" y="375"/>
			<point x="376" y="411" type="curve" smooth="yes"/>
			<point x="484" y="627" type="line"/>
			<point x="540" y="627" type="line"/>
			<point x="540" y="698" type="line"/>
			<point x="498" y="698" type="line" smooth="yes"/>
			<point x="456" y="698"/>
			<point x="432" y="677"/>
			<point x="407" y="630" type="curve" smooth="yes"/>
			<point x="283" y="388" type="line"/>
			<point x="164" y="388" type="line"/>
			<point x="164" y="698" type="line"/>
			<point x="83" y="698" type="line"/>
		</contour>
	</outline>
</glyph>
<glyph name="uni041B" format="2">
	<advance width="620"/>
	<outline>
		<contour>
			<point x="10" y="0" type="line"/>
			<point x="44" y="0" type="line" smooth="yes"/>
			<point x="91" y="0"/>
			<point x="122" y="15"/>
			<point x="145" y="40" type="curve" smooth="yes"/>
			<point x="201" y="101"/>
			<point x="231" y="220"/>
			<point x="231" y="500" type="curve" smooth="yes"/>
			<point x="231" y="627" type="line"/>
			<point x="457" y="627" type="line"/>
			<point x="457" y="0" type="line"/>
			<point x="537" y="0" type="line"/>
			<point x="537" y="698" type="line"/>
			<point x="154" y="698" type="line"/>
			<point x="154" y="505" type="line" smooth="yes"/>
			<point x="154" y="230"/>
			<point x="130" y="131"/>
			<point x="76" y="71" type="curve"/>
			<point x="10" y="71" type="line"/>
		</contour>
	</outline>
</glyph>
<glyph name="uni041F" format="2">
	<advance width="626"/>
	<outline>
		<contour>
			<point x="83" y="0" type="line"/>
			<point x="164" y="0" type="line"/>
			<point x="164" y="627" type="line"/>
			<point x="462" y="627" type="line"/>
			<point x="462" y="0" type="line"/>
			<point x="543" y="0" type="line"/>
			<point x="543" y="698" type="line"/>
			<point x="83" y="698" type="line"/>
		</contour>
	</outline>
</glyph>
<glyph name="uni042A" format="2">
	<advance width="668"/>
	<outline>
		<contour>
			<point x="182" y="0" type="line"/>
			<point x="456" y="0" type="line" smooth="yes"/>
			<point x="569" y="0"/>
			<point x="633" y="77"/>
			<point x="633" y="208" type="curve" smooth="yes"/>
			<point x="633" y="340"/>
			<point x="569" y="417"/>
			<point x="456" y="417" type="curve" smooth="yes"/>
			<point x="262" y="417" type="line"/>
			<point x="262" y="698" type="line"/>
			<point x="20" y="698" type="line"/>
			<point x="20" y="627" type="line"/>
			<point x="182" y="627" type="line"/>
		</contour>
		<contour>
			<point x="262" y="71" type="line"/>
			<point x="262" y="346" type="line"/>
			<point x="455" y="346" type="line" smooth="yes"/>
			<point x="512" y="346"/>
			<point x="547" y="308"/>
			<point x="547" y="234" type="curve" smooth="yes"/>
			<point x="547" y="183" type="line" smooth="yes"/>
			<point x="547" y="109"/>
			<point x="512" y="71"/>
			<point x="455" y="71" type="curve" smooth="yes"/>
		</contour>
	</outline>
</glyph>
<glyph name="uni042B" format="2">
	<advance width="793"/>
	<anchor x="396" y="698" name="top"/>
	<outline>
		<contour>
			<point x="83" y="0" type="line"/>
			<point x="349" y="0" type="line" smooth="yes"/>
			<point x="461" y="0"/>
			<point x="525" y="77"/>
			<point x="525" y="208" type="curve" smooth="yes"/>
			<point x="525" y="340"/>
			<point x="461" y="417"/>
			<point x="349" y="417" type="curve" smooth="yes"/>
			<point x="164" y="417" type="line"/>
			<point x="164" y="698" type="line"/>
			<point x="83" y="698" type="line"/>
		</contour>
		<contour>
			<point x="164" y="71" type="line"/>
			<point x="164" y="346" type="line"/>
			<point x="347" y="346" type="line" smooth="yes"/>
			<point x="405" y="346"/>
			<point x="439" y="307"/>
			<point x="439" y="234" type="curve" smooth="yes"/>
			<point x="439" y="183" type="line" smooth="yes"/>
			<point x="439" y="110"/>
			<point x="405" y="71"/>
			<point x="347" y="71" type="curve" smooth="yes"/>
		</contour>
		<contour>
			<point x="629" y="0" type="line"/>
			<point x="710" y="0" type="line"/>
			<point x="710" y="698" type="line"/>
			<point x="629" y="698" type="line"/>
		</contour>
	</outline>
</glyph>
<glyph name="uni042C" format="2">
	<advance width="569"/>
	<outline>
		<contour>
			<point x="83" y="0" type="line"/>
			<point x="358" y="0" type="line"/>
			<point x="470" y="0"/>
			<point x="534" y="77"/>
			<point x="534" y="208" type="curve" smooth="yes"/>
			<point x="534" y="340"/>
			<point x="470" y="417"/>
			<point x="358" y="417" type="curve" smooth="yes"/>
			<point x="164" y="417" type="line"/>
			<point x="164" y="698" type="line"/>
			<point x="83" y="698" type="line"/>
		</contour>
		<contour>
			<point x="164" y="71" type="line"/>
			<point x="164" y="346" type="line"/>
			<point x="356" y="346" type="line" smooth="yes"/>
			<point x="414" y="346"/>
			<point x="448" y="307"/>
			<point x="448" y="234" type="curve" smooth="yes"/>
			<point x="448" y="183" type="line" smooth="yes"/>
			<point x="448" y="110"/>
			<point x="414" y="71"/>
			<point x="356" y="71" type="curve" smooth="yes"/>
		</contour>
	</outline>
</glyph>
<glyph name="uni042D" format="2">
	<advance width="571"/>
	<outline>
		<contour>
			<point x="173" y="317" type="line"/>
			<point x="474" y="317" type="line"/>
			<point x="433" y="340" type="line"/>
			<point x="433" y="303" type="line" smooth="yes"/>
			<point x="433" y="157"/>
			<point x="372" y="60"/>
			<point x="260" y="60" type="curve" smooth="yes"/>
			<point x="175" y="60"/>
			<point x="122" y="110"/>
			<point x="97" y="187" type="curve"/>
			<point x="33" y="147" type="line"/>
			<point x="73" y="49"/>
			<point x="148" y="-12"/>
			<point x="260" y="-12" type="curve" smooth="yes"/>
			<point x="425" y="-12"/>
			<point x="519" y="119"/>
			<point x="519" y="353" type="curve" smooth="yes"/>
			<point x="519" y="586"/>
			<point x="425" y="710"/>
			<point x="260" y="710" type="curve" smooth="yes"/>
			<point x="150" y="710"/>
			<point x="78" y="654"/>
			<point x="37" y="558" type="curve"/>
			<point x="103" y="518" type="line"/>
			<point x="128" y="591"/>
			<point x="179" y="638"/>
			<point x="260" y="638" type="curve" smooth="yes"/>
			<point x="372" y="638"/>
			<point x="433" y="549"/>
			<point x="433" y="403" type="curve" smooth="yes"/>
			<point x="433" y="364" type="line"/>
			<point x="474" y="389" type="line"/>
			<point x="173" y="389" type="line"/>
		</contour>
	</outline>
</glyph>
<glyph name="uni042E" format="2">
	<advance width="869"/>
	<outline>
		<contour>
			<point x="558" y="-12" type="curve" smooth="yes"/>
			<point x="720" y="-12"/>
			<point x="817" y="109"/>
			<point x="817" y="349" type="curve" smooth="yes"/>
			<point x="817" y="589"/>
			<point x="720" y="710"/>
			<point x="558" y="710" type="curve" smooth="yes"/>
			<point x="406" y="710"/>
			<point x="309" y="598"/>
			<point x="301" y="389" type="curve"/>
			<point x="164" y="389" type="line"/>
			<point x="164" y="698" type="line"/>
			<point x="83" y="698" type="line"/>
			<point x="83" y="0" type="line"/>
			<point x="164" y="0" type="line"/>
			<point x="164" y="317" type="line"/>
			<point x="299" y="317" type="line"/>
			<point x="309" y="102"/>
			<point x="401" y="-12"/>
		</contour>
		<contour>
			<point x="558" y="60" type="curve" smooth="yes"/>
			<point x="451" y="60"/>
			<point x="385" y="146"/>
			<point x="385" y="293" type="curve" smooth="yes"/>
			<point x="385" y="405" type="line" smooth="yes"/>
			<point x="385" y="552"/>
			<point x="451" y="638"/>
			<point x="558" y="638" type="curve" smooth="yes"/>
			<point x="665" y="638"/>
			<point x="731" y="552"/>
			<point x="731" y="405" type="curve" smooth="yes"/>
			<point x="731" y="293" type="line" smooth="yes"/>
			<point x="731" y="146"/>
			<point x="665" y="60"/>
		</contour>
	</outline>
</glyph>
<glyph name="uni042F" format="2">
	<advance width="579"/>
	<outline>
		<contour>
			<point x="37" y="0" type="line"/>
			<point x="94" y="0" type="line" smooth="yes"/>
			<point x="128" y="0"/>
			<point x="152" y="14"/>
			<point x="176" y="67" type="curve" smooth="yes"/>
			<point x="282" y="301" type="line"/>
			<point x="416" y="301" type="line"/>
			<point x="416" y="0" type="line"/>
			<point x="496" y="0" type="line"/>
			<point x="496" y="698" type="line"/>
			<point x="242" y="698" type="line" smooth="yes"/>
			<point x="132" y="698"/>
			<point x="66" y="627"/>
			<point x="66" y="501" type="curve" smooth="yes"/>
			<point x="66" y="388"/>
			<point x="121" y="315"/>
			<point x="236" y="315" type="curve" smooth="yes"/>
			<point x="264" y="315" type="line"/>
			<point x="228" y="328" type="line"/>
			<point x="228" y="303" type="line"/>
			<point x="197" y="299"/>
			<point x="185" y="283"/>
			<point x="167" y="243" type="curve" smooth="yes"/>
			<point x="91" y="71" type="line"/>
			<point x="37" y="71" type="line"/>
		</contour>
		<contour>
			<point x="244" y="370" type="line" smooth="yes"/>
			<point x="186" y="370"/>
			<point x="151" y="408"/>
			<point x="151" y="473" type="curve" smooth="yes"/>
			<point x="151" y="524" type="line" smooth="yes"/>
			<point x="151" y="589"/>
			<point x="186" y="627"/>
			<point x="244" y="627" type="curve" smooth="yes"/>
			<point x="416" y="627" type="line"/>
			<point x="416" y="370" type="line"/>
		</contour>
	</outline>
</glyph>
<glyph name="uni043A" format="2">
	<advance width="498"/>
	<anchor x="252" y="540" name="top"/>
	<outline>
		<contour>
			<point x="75" y="0" type="line"/>
			<point x="152" y="0" type="line"/>
			<point x="152" y="233" type="line"/>
			<point x="243" y="233" type="line"/>
			<point x="327" y="61" type="line" smooth="yes"/>
			<point x="351" y="14"/>
			<point x="377" y="0"/>
			<point x="409" y="0" type="curve" smooth="yes"/>
			<point x="462" y="0" type="line"/>
			<point x="462" y="67" type="line"/>
			<point x="409" y="67" type="line"/>
			<point x="339" y="211" type="line" smooth="yes"/>
			<point x="320" y="250"/>
			<point x="303" y="260"/>
			<point x="278" y="262" type="curve"/>
			<point x="278" y="272" type="line"/>
			<point x="300" y="275"/>
			<point x="310" y="283"/>
			<point x="329" y="317" type="curve" smooth="yes"/>
			<point x="399" y="448" type="line"/>
			<point x="454" y="448" type="line"/>
			<point x="454" y="515" type="line"/>
			<point x="411" y="515" type="line" smooth="yes"/>
			<point x="377" y="515"/>
			<point x="357" y="506"/>
			<point x="331" y="459" type="curve" smooth="yes"/>
			<point x="243" y="299" type="line"/>
			<point x="152" y="299" type="line"/>
			<point x="152" y="515" type="line"/>
			<point x="75" y="515" type="line"/>
		</contour>
	</outline>
</glyph>
<glyph name="uni043B" format="2">
	<advance width="512"/>
	<outline>
		<contour>
			<point x="8" y="0" type="line"/>
			<point x="37" y="0" type="line" smooth="yes"/>
			<point x="74" y="0"/>
			<point x="104" y="8"/>
			<point x="127" y="33" type="curve" smooth="yes"/>
			<point x="161" y="70"/>
			<point x="191" y="159"/>
			<point x="191" y="366" type="curve" smooth="yes"/>
			<point x="191" y="448" type="line"/>
			<point x="360" y="448" type="line"/>
			<point x="360" y="0" type="line"/>
			<point x="437" y="0" type="line"/>
			<point x="437" y="515" type="line"/>
			<point x="118" y="515" type="line"/>
			<point x="118" y="368" type="line" smooth="yes"/>
			<point x="118" y="194"/>
			<point x="99" y="115"/>
			<point x="69" y="67" type="curve"/>
			<point x="8" y="67" type="line"/>
		</contour>
	</outline>
</glyph>
<glyph name="uni043C" format="2">
	<advance width="628"/>
	<outline>
		<contour>
			<point x="75" y="0" type="line"/>
			<point x="150" y="0" type="line"/>
			<point x="150" y="364" type="line"/>
			<point x="147" y="423" type="line"/>
			<point x="157" y="423" type="line"/>
			<point x="181" y="367" type="line"/>
			<point x="314" y="110" type="line"/>
			<point x="447" y="367" type="line"/>
			<point x="471" y="423" type="line"/>
			<point x="481" y="423" type="line"/>
			<point x="478" y="366" type="line"/>
			<point x="478" y="0" type="line"/>
			<point x="553" y="0" type="line"/>
			<point x="553" y="515" type="line"/>
			<point x="455" y="515" type="line"/>
			<point x="317" y="244" type="line"/>
			<point x="313" y="244" type="line"/>
			<point x="174" y="515" type="line"/>
			<point x="75" y="515" type="line"/>
		</contour>
	</outline>
</glyph>
<glyph name="uni043D" format="2">
	<advance width="530"/>
	<outline>
		<contour>
			<point x="75" y="0" type="line"/>
			<point x="152" y="0" type="line"/>
			<point x="152" y="232" type="line"/>
			<point x="378" y="232" type="line"/>
			<point x="378" y="0" type="line"/>
			<point x="455" y="0" type="line"/>
			<point x="455" y="515" type="line"/>
			<point x="378" y="515" type="line"/>
			<point x="378" y="300" type="line"/>
			<point x="152" y="300" type="line"/>
			<point x="152" y="515" type="line"/>
			<point x="75" y="515" type="line"/>
		</contour>
	</outline>
</glyph>
<glyph name="uni044A" format="2">
	<advance width="534"/>
	<outline>
		<contour>
			<point x="139" y="0" type="line"/>
			<point x="348" y="0" type="line" smooth="yes"/>
			<point x="442" y="0"/>
			<point x="501" y="61"/>
			<point x="501" y="164" type="curve" smooth="yes"/>
			<point x="501" y="264"/>
			<point x="441" y="327"/>
			<point x="348" y="327" type="curve" smooth="yes"/>
			<point x="216" y="327" type="line"/>
			<point x="216" y="515" type="line"/>
			<point x="18" y="515" type="line"/>
			<point x="18" y="448" type="line"/>
			<point x="139" y="448" type="line"/>
		</contour>
		<contour>
			<point x="216" y="67" type="line"/>
			<point x="216" y="260" type="line"/>
			<point x="336" y="260" type="line" smooth="yes"/>
			<point x="388" y="260"/>
			<point x="419" y="238"/>
			<point x="419" y="185" type="curve" smooth="yes"/>
			<point x="419" y="143" type="line" smooth="yes"/>
			<point x="419" y="90"/>
			<point x="388" y="67"/>
			<point x="336" y="67" type="curve" smooth="yes"/>
		</contour>
	</outline>
</glyph>
<glyph name="uni044B" format="2">
	<advance width="657"/>
	<anchor x="329" y="540" name="top"/>
	<outline>
		<contour>
			<point x="75" y="0" type="line"/>
			<point x="275" y="0" type="line" smooth="yes"/>
			<point x="369" y="0"/>
			<point x="428" y="61"/>
			<point x="428" y="163" type="curve" smooth="yes"/>
			<point x="428" y="264"/>
			<point x="368" y="327"/>
			<point x="275" y="327" type="curve" smooth="yes"/>
			<point x="152" y="327" type="line"/>
			<point x="152" y="515" type="line"/>
			<point x="75" y="515" type="line"/>
		</contour>
		<contour>
			<point x="152" y="67" type="line"/>
			<point x="152" y="260" type="line"/>
			<point x="263" y="260" type="line" smooth="yes"/>
			<point x="315" y="260"/>
			<point x="346" y="238"/>
			<point x="346" y="185" type="curve" smooth="yes"/>
			<point x="346" y="143" type="line" smooth="yes"/>
			<point x="346" y="90"/>
			<point x="315" y="67"/>
			<point x="263" y="67" type="curve" smooth="yes"/>
		</contour>
		<contour>
			<point x="505" y="0" type="line"/>
			<point x="582" y="0" type="line"/>
			<point x="582" y="515" type="line"/>
			<point x="505" y="515" type="line"/>
		</contour>
	</outline>
</glyph>
<glyph name="uni044C" format="2">
	<advance width="470"/>
	<outline>
		<contour>
			<point x="75" y="0" type="line"/>
			<point x="284" y="0" type="line" smooth="yes"/>
			<point x="379" y="0"/>
			<point x="437" y="61"/>
			<point x="437" y="163" type="curve" smooth="yes"/>
			<point x="437" y="264"/>
			<point x="377" y="327"/>
			<point x="284" y="327" type="curve" smooth="yes"/>
			<point x="152" y="327" type="line"/>
			<point x="152" y="515" type="line"/>
			<point x="75" y="515" type="line"/>
		</contour>
		<contour>
			<point x="152" y="67" type="line"/>
			<point x="152" y="260" type="line"/>
			<point x="272" y="260" type="line" smooth="yes"/>
			<point x="324" y="260"/>
			<point x="355" y="238"/>
			<point x="355" y="185" type="curve" smooth="yes"/>
			<point x="355" y="143" type="line" smooth="yes"/>
			<point x="355" y="90"/>
			<point x="324" y="67"/>
			<point x="272" y="67" type="curve" smooth="yes"/>
		</contour>
	</outline>
</glyph>
<glyph name="uni044D" format="2">
	<advance width="461"/>
	<outline>
		<contour>
			<point x="141" y="228" type="line"/>
			<point x="338" y="228" type="line"/>
			<point x="338" y="215" type="line" smooth="yes"/>
			<point x="338" y="121"/>
			<point x="295" y="56"/>
			<point x="208" y="56" type="curve" smooth="yes"/>
			<point x="147" y="56"/>
			<point x="110" y="87"/>
			<point x="93" y="141" type="curve"/>
			<point x="29" y="108" type="line"/>
			<point x="56" y="41"/>
			<point x="107" y="-12"/>
			<point x="208" y="-12" type="curve" smooth="yes"/>
			<point x="343" y="-12"/>
			<point x="420" y="92"/>
			<point x="420" y="258" type="curve" smooth="yes"/>
			<point x="420" y="422"/>
			<point x="344" y="527"/>
			<point x="208" y="527" type="curve" smooth="yes"/>
			<point x="115" y="527"/>
			<point x="55" y="480"/>
			<point x="25" y="407" type="curve"/>
			<point x="82" y="369" type="line"/>
			<point x="106" y="428"/>
			<point x="146" y="459"/>
			<point x="208" y="459" type="curve" smooth="yes"/>
			<point x="295" y="459"/>
			<point x="338" y="394"/>
			<point x="338" y="301" type="curve" smooth="yes"/>
			<point x="338" y="293" type="line"/>
			<point x="141" y="293" type="line"/>
		</contour>
	</outline>
</glyph>
<glyph name="uni044E" format="2">
	<advance width="705"/>
	<outline>
		<contour>
			<point x="460" y="-12" type="curve" smooth="yes"/>
			<point x="584" y="-12"/>
			<point x="664" y="88"/>
			<point x="664" y="258" type="curve" smooth="yes"/>
			<point x="664" y="428"/>
			<point x="584" y="527"/>
			<point x="460" y="527" type="curve" smooth="yes"/>
			<point x="346" y="527"/>
			<point x="269" y="444"/>
			<point x="257" y="299" type="curve"/>
			<point x="152" y="299" type="line"/>
			<point x="152" y="515" type="line"/>
			<point x="75" y="515" type="line"/>
			<point x="75" y="0" type="line"/>
			<point x="152" y="0" type="line"/>
			<point x="152" y="233" type="line"/>
			<point x="255" y="233" type="line"/>
			<point x="264" y="78"/>
			<point x="343" y="-12"/>
		</contour>
		<contour>
			<point x="460" y="56" type="curve" smooth="yes"/>
			<point x="385" y="56"/>
			<point x="337" y="106"/>
			<point x="337" y="221" type="curve" smooth="yes"/>
			<point x="337" y="294" type="line" smooth="yes"/>
			<point x="337" y="410"/>
			<point x="385" y="459"/>
			<point x="460" y="459" type="curve" smooth="yes"/>
			<point x="534" y="459"/>
			<point x="582" y="410"/>
			<point x="582" y="294" type="curve" smooth="yes"/>
			<point x="582" y="221" type="line" smooth="yes"/>
			<point x="582" y="106"/>
			<point x="534" y="56"/>
		</contour>
	</outline>
</glyph>
<glyph name="uni044F" format="2">
	<advance width="484"/>
	<outline>
		<contour>
			<point x="35" y="0" type="line"/>
			<point x="86" y="0" type="line" smooth="yes"/>
			<point x="124" y="0"/>
			<point x="148" y="20"/>
			<point x="167" y="68" type="curve" smooth="yes"/>
			<point x="216" y="199" type="line"/>
			<point x="332" y="199" type="line"/>
			<point x="332" y="0" type="line"/>
			<point x="409" y="0" type="line"/>
			<point x="409" y="515" type="line"/>
			<point x="200" y="515" type="line" smooth="yes"/>
			<point x="106" y="515"/>
			<point x="47" y="454"/>
			<point x="47" y="356" type="curve" smooth="yes"/>
			<point x="47" y="271"/>
			<point x="91" y="214"/>
			<point x="171" y="209" type="curve"/>
			<point x="171" y="199" type="line"/>
			<point x="147" y="198"/>
			<point x="128" y="181"/>
			<point x="115" y="148" type="curve" smooth="yes"/>
			<point x="86" y="67" type="line"/>
			<point x="35" y="67" type="line"/>
		</contour>
		<contour>
			<point x="212" y="264" type="line" smooth="yes"/>
			<point x="160" y="264"/>
			<point x="129" y="286"/>
			<point x="129" y="339" type="curve" smooth="yes"/>
			<point x="129" y="372" type="line" smooth="yes"/>
			<point x="129" y="425"/>
			<point x="160" y="448"/>
			<point x="212" y="448" type="curve" smooth="yes"/>
			<point x="332" y="448" type="line"/>
			<point x="332" y="264" type="line"/>
		</contour>
	</outline>
</glyph>
<glyph name="uni045A" format="2">
	<advance width="751"/>
	<outline>
		<contour>
			<point x="75" y="0" type="line"/>
			<point x="152" y="0" type="line"/>
			<point x="152" y="233" type="line"/>
			<point x="365" y="233" type="line"/>
			<point x="365" y="0" type="line"/>
			<point x="565" y="0" type="line" smooth="yes"/>
			<point x="659" y="0"/>
			<point x="718" y="61"/>
			<point x="718" y="163" type="curve" smooth="yes"/>
			<point x="718" y="264"/>
			<point x="657" y="327"/>
			<point x="564" y="327" type="curve" smooth="yes"/>
			<point x="442" y="327" type="line"/>
			<point x="442" y="515" type="line"/>
			<point x="365" y="515" type="line"/>
			<point x="365" y="300" type="line"/>
			<point x="152" y="300" type="line"/>
			<point x="152" y="515" type="line"/>
			<point x="75" y="515" type="line"/>
		</contour>
		<contour>
			<point x="442" y="67" type="line"/>
			<point x="442" y="259" type="line"/>
			<point x="553" y="259" type="line" smooth="yes"/>
			<point x="605" y="259"/>
			<point x="636" y="238"/>
			<point x="636" y="184" type="curve" smooth="yes"/>
			<point x="636" y="143" type="line" smooth="yes"/>
			<point x="636" y="90"/>
			<point x="605" y="67"/>
			<point x="553" y="67" type="curve" smooth="yes"/>
		</contour>
	</outline>
</glyph>
<glyph name="uni045F" format="2">
	<advance width="517"/>
	<outline>
		<contour>
			<point x="223" y="-140" type="line"/>
			<point x="294" y="-140" type="line"/>
			<point x="294" y="0" type="line"/>
			<point x="442" y="0" type="line"/>
			<point x="442" y="515" type="line"/>
			<point x="365" y="515" type="line"/>
			<point x="365" y="67" type="line"/>
			<point x="152" y="67" type="line"/>
			<point x="152" y="515" type="line"/>
			<point x="75" y="515" type="line"/>
			<point x="75" y="0" type="line"/>
			<point x="223" y="0" type="line"/>
		</contour>
	</outline>
</glyph>
<glyph name="uni049A" format="2">
	<advance width="606"/>
	<outline>
		<contour>
			<point x="520" y="-150" type="line"/>
			<point x="594" y="-150" type="line"/>
			<point x="594" y="71" type="line"/>
			<point x="505" y="71" type="line"/>
			<point x="391" y="289" type="line" smooth="yes"/>
			<point x="367" y="333"/>
			<point x="349" y="345"/>
			<point x="322" y="348" type="curve"/>
			<point x="322" y="359" type="line"/>
			<point x="343" y="363"/>
			<point x="355" y="370"/>
			<point x="376" y="411" type="curve" smooth="yes"/>
			<point x="484" y="627" type="line"/>
			<point x="540" y="627" type="line"/>
			<point x="540" y="698" type="line"/>
			<point x="498" y="698" type="line" smooth="yes"/>
			<point x="456" y="698"/>
			<point x="432" y="677"/>
			<point x="407" y="630" type="curve" smooth="yes"/>
			<point x="283" y="388" type="line"/>
			<point x="164" y="388" type="line"/>
			<point x="164" y="698" type="line"/>
			<point x="83" y="698" type="line"/>
			<point x="83" y="0" type="line"/>
			<point x="164" y="0" type="line"/>
			<point x="164" y="318" type="line"/>
			<point x="283" y="318" type="line"/>
			<point x="419" y="63" type="line" smooth="yes"/>
			<point x="446" y="13"/>
			<point x="473" y="0"/>
			<point x="502" y="0" type="curve" smooth="yes"/>
			<point x="554" y="0" type="line"/>
			<point x="520" y="43" type="line"/>
		</contour>
	</outline>
</glyph>
<glyph name="uni049C" format="2">
	<advance width="628"/>
	<outline>
		<contour>
			<point x="83" y="0" type="line"/>
			<point x="164" y="0" type="line"/>
			<point x="164" y="318" type="line"/>
			<point x="214" y="318" type="line"/>
			<point x="214" y="164" type="line"/>
			<point x="275" y="164" type="line"/>
			<point x="275" y="318" type="line"/>
			<point x="323" y="318" type="line"/>
			<point x="448" y="66" type="line" smooth="yes"/>
			<point x="472" y="18"/>
			<point x="500" y="0"/>
			<point x="533" y="0" type="curve" smooth="yes"/>
			<point x="590" y="0" type="line"/>
			<point x="590" y="71" type="line"/>
			<point x="535" y="71" type="line"/>
			<point x="428" y="290" type="line" smooth="yes"/>
			<point x="407" y="332"/>
			<point x="389" y="345"/>
			<point x="362" y="348" type="curve"/>
			<point x="362" y="359" type="line"/>
			<point x="384" y="364"/>
			<point x="396" y="372"/>
			<point x="413" y="409" type="curve" smooth="yes"/>
			<point x="514" y="627" type="line"/>
			<point x="571" y="627" type="line"/>
			<point x="571" y="698" type="line"/>
			<point x="528" y="698" type="line" smooth="yes"/>
			<point x="490" y="698"/>
			<point x="463" y="681"/>
			<point x="438" y="629" type="curve" smooth="yes"/>
			<point x="323" y="388" type="line"/>
			<point x="275" y="388" type="line"/>
			<point x="275" y="543" type="line"/>
			<point x="214" y="543" type="line"/>
			<point x="214" y="388" type="line"/>
			<point x="164" y="388" type="line"/>
			<point x="164" y="698" type="line"/>
			<point x="83" y="698" type="line"/>
		</contour>
	</outline>
</glyph>
<glyph name="uni049D" format="2">
	<advance width="529"/>
	<outline>
		<contour>
			<point x="75" y="0" type="line"/>
			<point x="152" y="0" type="line"/>
			<point x="152" y="233" type="line"/>
			<point x="191" y="233" type="line"/>
			<point x="191" y="116" type="line"/>
			<point x="248" y="116" type="line"/>
			<point x="248" y="233" type="line"/>
			<point x="282" y="233" type="line"/>
			<point x="358" y="61" type="line" smooth="yes"/>
			<point x="379" y="13"/>
			<point x="408" y="0"/>
			<point x="440" y="0" type="curve" smooth="yes"/>
			<point x="493" y="0" type="line"/>
			<point x="493" y="67" type="line"/>
			<point x="440" y="67" type="line"/>
			<point x="377" y="211" type="line" smooth="yes"/>
			<point x="359" y="253"/>
			<point x="343" y="260"/>
			<point x="318" y="262" type="curve"/>
			<point x="318" y="272" type="line"/>
			<point x="338" y="275"/>
			<point x="349" y="282"/>
			<point x="366" y="317" type="curve" smooth="yes"/>
			<point x="430" y="448" type="line"/>
			<point x="485" y="448" type="line"/>
			<point x="485" y="515" type="line"/>
			<point x="442" y="515" type="line" smooth="yes"/>
			<point x="407" y="515"/>
			<point x="385" y="508"/>
			<point x="361" y="459" type="curve" smooth="yes"/>
			<point x="282" y="299" type="line"/>
			<point x="248" y="299" type="line"/>
			<point x="248" y="417" type="line"/>
			<point x="191" y="417" type="line"/>
			<point x="191" y="299" type="line"/>
			<point x="152" y="299" type="line"/>
			<point x="152" y="515" type="line"/>
			<point x="75" y="515" type="line"/>
		</contour>
	</outline>
</glyph>
<glyph name="uni049E" format="2">
	<advance width="635"/>
	<outline>
		<contour>
			<point x="120" y="0" type="line"/>
			<point x="201" y="0" type="line"/>
			<point x="201" y="318" type="line"/>
			<point x="321" y="318" type="line"/>
			<point x="456" y="63" type="line" smooth="yes"/>
			<point x="483" y="13"/>
			<point x="510" y="0"/>
			<point x="540" y="0" type="curve" smooth="yes"/>
			<point x="597" y="0" type="line"/>
			<point x="597" y="71" type="line"/>
			<point x="542" y="71" type="line"/>
			<point x="428" y="289" type="line" smooth="yes"/>
			<point x="405" y="333"/>
			<point x="386" y="345"/>
			<point x="359" y="348" type="curve"/>
			<point x="359" y="359" type="line"/>
			<point x="384" y="364"/>
			<point x="395" y="376"/>
			<point x="413" y="411" type="curve" smooth="yes"/>
			<point x="521" y="627" type="line"/>
			<point x="578" y="627" type="line"/>
			<point x="578" y="698" type="line"/>
			<point x="535" y="698" type="line" smooth="yes"/>
			<point x="495" y="698"/>
			<point x="469" y="679"/>
			<point x="444" y="630" type="curve" smooth="yes"/>
			<point x="321" y="388" type="line"/>
			<point x="201" y="388" type="line"/>
			<point x="201" y="555" type="line"/>
			<point x="338" y="555" type="line"/>
			<point x="338" y="617" type="line"/>
			<point x="201" y="617" type="line"/>
			<point x="201" y="698" type="line"/>
			<point x="120" y="698" type="line"/>
			<point x="120" y="617" type="line"/>
			<point x="23" y="617" type="line"/>
			<point x="23" y="555" type="line"/>
			<point x="120" y="555" type="line"/>
		</contour>
	</outline>
</glyph>
<glyph name="uni04A0" format="2">
	<advance width="696"/>
	<outline>
		<contour>
			<point x="182" y="0" type="line"/>
			<point x="262" y="0" type="line"/>
			<point x="262" y="318" type="line"/>
			<point x="382" y="318" type="line"/>
			<point x="517" y="63" type="line" smooth="yes"/>
			<point x="544" y="12"/>
			<point x="572" y="0"/>
			<point x="601" y="0" type="curve" smooth="yes"/>
			<point x="658" y="0" type="line"/>
			<point x="658" y="71" type="line"/>
			<point x="603" y="71" type="line"/>
			<point x="490" y="289" type="line" smooth="yes"/>
			<point x="467" y="333"/>
			<point x="447" y="345"/>
			<point x="420" y="348" type="curve"/>
			<point x="420" y="359" type="line"/>
			<point x="441" y="363"/>
			<point x="453" y="369"/>
			<point x="474" y="411" type="curve" smooth="yes"/>
			<point x="582" y="627" type="line"/>
			<point x="639" y="627" type="line"/>
			<point x="639" y="698" type="line"/>
			<point x="596" y="698" type="line" smooth="yes"/>
			<point x="557" y="698"/>
			<point x="532" y="680"/>
			<point x="506" y="630" type="curve" smooth="yes"/>
			<point x="382" y="388" type="line"/>
			<point x="262" y="388" type="line"/>
			<point x="262" y="698" type="line"/>
			<point x="20" y="698" type="line"/>
			<point x="20" y="627" type="line"/>
			<point x="182" y="627" type="line"/>
		</contour>
	</outline>
</glyph>
<glyph name="uni04A2" format="2">
	<advance width="673"/>
	<outline>
		<contour>
			<point x="571" y="-150" type="line"/>
			<point x="645" y="-150" type="line"/>
			<point x="645" y="71" type="line"/>
			<point x="556" y="71" type="line"/>
			<point x="556" y="698" type="line"/>
			<point x="475" y="698" type="line"/>
			<point x="475" y="389" type="line"/>
			<point x="164" y="389" type="line"/>
			<point x="164" y="698" type="line"/>
			<point x="83" y="698" type="line"/>
			<point x="83" y="0" type="line"/>
			<point x="164" y="0" type="line"/>
			<point x="164" y="317" type="line"/>
			<point x="475" y="317" type="line"/>
			<point x="475" y="0" type="line"/>
			<point x="571" y="0" type="line"/>
		</contour>
	</outline>
</glyph>
<glyph name="uni04A3" format="2">
	<advance width="556"/>
	<outline>
		<contour>
			<point x="463" y="-140" type="line"/>
			<point x="533" y="-140" type="line"/>
			<point x="533" y="67" type="line"/>
			<point x="455" y="67" type="line"/>
			<point x="455" y="515" type="line"/>
			<point x="378" y="515" type="line"/>
			<point x="378" y="300" type="line"/>
			<point x="152" y="300" type="line"/>
			<point x="152" y="515" type="line"/>
			<point x="75" y="515" type="line"/>
			<point x="75" y="0" type="line"/>
			<point x="152" y="0" type="line"/>
			<point x="152" y="232" type="line"/>
			<point x="378" y="232" type="line"/>
			<point x="378" y="0" type="line"/>
			<point x="463" y="0" type="line"/>
		</contour>
	</outline>
</glyph>
<glyph name="uni04A4" format="2">
	<advance width="824"/>
	<outline>
		<contour>
			<point x="83" y="0" type="line"/>
			<point x="164" y="0" type="line"/>
			<point x="164" y="317" type="line"/>
			<point x="457" y="317" type="line"/>
			<point x="457" y="0" type="line"/>
			<point x="538" y="0" type="line"/>
			<point x="538" y="627" type="line"/>
			<point x="801" y="627" type="line"/>
			<point x="801" y="698" type="line"/>
			<point x="457" y="698" type="line"/>
			<point x="457" y="389" type="line"/>
			<point x="164" y="389" type="line"/>
			<point x="164" y="698" type="line"/>
			<point x="83" y="698" type="line"/>
		</contour>
	</outline>
</glyph>
<glyph name="uni04A5" format="2">
	<advance width="681"/>
	<outline>
		<contour>
			<point x="75" y="0" type="line"/>
			<point x="152" y="0" type="line"/>
			<point x="152" y="233" type="line"/>
			<point x="365" y="233" type="line"/>
			<point x="365" y="0" type="line"/>
			<point x="442" y="0" type="line"/>
			<point x="442" y="448" type="line"/>
			<point x="660" y="448" type="line"/>
			<point x="660" y="515" type="line"/>
			<point x="365" y="515" type="line"/>
			<point x="365" y="300" type="line"/>
			<point x="152" y="300" type="line"/>
			<point x="152" y="515" type="line"/>
			<point x="75" y="515" type="line"/>
		</contour>
	</outline>
</glyph>
<glyph name="uni04A6" format="2">
	<advance width="910"/>
	<outline>
		<contour>
			<point x="649" y="-164" type="line"/>
			<point x="691" y="-164" type="line" smooth="yes"/>
			<point x="794" y="-164"/>
			<point x="866" y="-78"/>
			<point x="866" y="82" type="curve" smooth="yes"/>
			<point x="866" y="154" type="line" smooth="yes"/>
			<point x="866" y="321"/>
			<point x="799" y="401"/>
			<point x="653" y="401" type="curve" smooth="yes"/>
			<point x="602" y="401"/>
			<point x="559" y="391"/>
			<point x="529" y="378" type="curve"/>
			<point x="525" y="378" type="line"/>
			<point x="525" y="698" type="line"/>
			<point x="83" y="698" type="line"/>
			<point x="83" y="0" type="line"/>
			<point x="164" y="0" type="line"/>
			<point x="164" y="627" type="line"/>
			<point x="444" y="627" type="line"/>
			<point x="444" y="0" type="line"/>
			<point x="525" y="0" type="line"/>
			<point x="525" y="307" type="line"/>
			<point x="555" y="321"/>
			<point x="601" y="330"/>
			<point x="650" y="330" type="curve" smooth="yes"/>
			<point x="740" y="330"/>
			<point x="785" y="277"/>
			<point x="785" y="154" type="curve" smooth="yes"/>
			<point x="785" y="82" type="line" smooth="yes"/>
			<point x="785" y="-14"/>
			<point x="760" y="-67"/>
			<point x="726" y="-93" type="curve"/>
			<point x="649" y="-93" type="line"/>
		</contour>
	</outline>
</glyph>
<glyph name="uni04A7" format="2">
	<advance width="754"/>
	<outline>
		<contour>
			<point x="527" y="-200" type="line"/>
			<point x="576" y="-200" type="line" smooth="yes"/>
			<point x="659" y="-200"/>
			<point x="709" y="-138"/>
			<point x="709" y="-3" type="curve" smooth="yes"/>
			<point x="709" y="113" type="line" smooth="yes"/>
			<point x="709" y="246"/>
			<point x="658" y="298"/>
			<point x="563" y="298" type="curve" smooth="yes"/>
			<point x="498" y="298"/>
			<point x="461" y="271"/>
			<point x="438" y="235" type="curve"/>
			<point x="428" y="235" type="line"/>
			<point x="428" y="515" type="line"/>
			<point x="75" y="515" type="line"/>
			<point x="75" y="0" type="line"/>
			<point x="152" y="0" type="line"/>
			<point x="152" y="448" type="line"/>
			<point x="351" y="448" type="line"/>
			<point x="351" y="0" type="line"/>
			<point x="428" y="0" type="line"/>
			<point x="428" y="162" type="line"/>
			<point x="428" y="206"/>
			<point x="475" y="229"/>
			<point x="539" y="229" type="curve" smooth="yes"/>
			<point x="605" y="229"/>
			<point x="632" y="197"/>
			<point x="632" y="106" type="curve" smooth="yes"/>
			<point x="632" y="9" type="line"/>
			<point x="632" y="-69"/>
			<point x="621" y="-110"/>
			<point x="605" y="-133" type="curve"/>
			<point x="527" y="-133" type="line"/>
		</contour>
	</outline>
</glyph>
<glyph name="uni04A8" format="2">
	<advance width="791"/>
	<outline>
		<contour>
			<point x="749" y="28" type="line"/>
			<point x="699" y="28" type="line" smooth="yes"/>
			<point x="658" y="28"/>
			<point x="618" y="35"/>
			<point x="591" y="49" type="curve"/>
			<point x="685" y="113"/>
			<point x="732" y="226"/>
			<point x="732" y="367" type="curve" smooth="yes"/>
			<point x="732" y="556"/>
			<point x="657" y="647"/>
			<point x="525" y="647" type="curve" smooth="yes"/>
			<point x="394" y="647"/>
			<point x="320" y="555"/>
			<point x="320" y="367" type="curve" smooth="yes"/>
			<point x="320" y="222"/>
			<point x="367" y="112"/>
			<point x="433" y="62" type="curve"/>
			<point x="419" y="60"/>
			<point x="402" y="58"/>
			<point x="384" y="58" type="curve" smooth="yes"/>
			<point x="231" y="58"/>
			<point x="138" y="158"/>
			<point x="138" y="307" type="curve" smooth="yes"/>
			<point x="138" y="427" type="line" smooth="yes"/>
			<point x="138" y="551"/>
			<point x="203" y="638"/>
			<point x="303" y="638" type="curve" smooth="yes"/>
			<point x="311" y="638"/>
			<point x="331" y="637"/>
			<point x="344" y="634" type="curve"/>
			<point x="352" y="706" type="line"/>
			<point x="340" y="708"/>
			<point x="320" y="710"/>
			<point x="304" y="710" type="curve" smooth="yes"/>
			<point x="140" y="710"/>
			<point x="52" y="579"/>
			<point x="52" y="366" type="curve" smooth="yes"/>
			<point x="52" y="120"/>
			<point x="170" y="-12"/>
			<point x="384" y="-12" type="curve" smooth="yes"/>
			<point x="426" y="-12"/>
			<point x="468" y="-5"/>
			<point x="502" y="8" type="curve"/>
			<point x="553" y="-22"/>
			<point x="617" y="-43"/>
			<point x="699" y="-43" type="curve" smooth="yes"/>
			<point x="749" y="-43" type="line"/>
		</contour>
		<contour>
			<point x="401" y="410" type="line"/>
			<point x="401" y="519"/>
			<point x="450" y="577"/>
			<point x="526" y="577" type="curve" smooth="yes"/>
			<point x="602" y="577"/>
			<point x="650" y="518"/>
			<point x="650" y="410" type="curve" smooth="yes"/>
			<point x="650" y="324" type="line" smooth="yes"/>
			<point x="650" y="218"/>
			<point x="598" y="126"/>
			<point x="518" y="87" type="curve"/>
			<point x="438" y="142"/>
			<point x="401" y="224"/>
			<point x="401" y="324" type="curve" smooth="yes"/>
		</contour>
	</outline>
</glyph>
<glyph name="uni04A9" format="2">
	<advance width="607"/>
	<outline>
		<contour>
			<point x="585" y="24" type="line"/>
			<point x="541" y="24" type="line" smooth="yes"/>
			<point x="508" y="24"/>
			<point x="483" y="29"/>
			<point x="465" y="38" type="curve"/>
			<point x="535" y="85"/>
			<point x="571" y="171"/>
			<point x="571" y="272" type="curve" smooth="yes"/>
			<point x="571" y="413"/>
			<point x="512" y="481"/>
			<point x="410" y="481" type="curve" smooth="yes"/>
			<point x="307" y="481"/>
			<point x="248" y="413"/>
			<point x="248" y="272" type="curve" smooth="yes"/>
			<point x="248" y="173"/>
			<point x="279" y="100"/>
			<point x="324" y="52" type="curve"/>
			<point x="316" y="50"/>
			<point x="306" y="50"/>
			<point x="299" y="50" type="curve" smooth="yes"/>
			<point x="182" y="50"/>
			<point x="119" y="121"/>
			<point x="119" y="234" type="curve" smooth="yes"/>
			<point x="119" y="309" type="line" smooth="yes"/>
			<point x="119" y="402"/>
			<point x="166" y="464"/>
			<point x="238" y="464" type="curve" smooth="yes"/>
			<point x="248" y="464"/>
			<point x="261" y="463"/>
			<point x="268" y="461" type="curve"/>
			<point x="274" y="524" type="line"/>
			<point x="265" y="526"/>
			<point x="254" y="527"/>
			<point x="238" y="527" type="curve" smooth="yes"/>
			<point x="114" y="527"/>
			<point x="41" y="426"/>
			<point x="41" y="271" type="curve" smooth="yes"/>
			<point x="41" y="90"/>
			<point x="136" y="-12"/>
			<point x="299" y="-12" type="curve" smooth="yes"/>
			<point x="327" y="-12"/>
			<point x="361" y="-7"/>
			<point x="385" y="1" type="curve"/>
			<point x="429" y="-28"/>
			<point x="481" y="-43"/>
			<point x="541" y="-43" type="curve" smooth="yes"/>
			<point x="585" y="-43" type="line"/>
		</contour>
		<contour>
			<point x="326" y="302" type="line"/>
			<point x="326" y="378"/>
			<point x="361" y="419"/>
			<point x="410" y="419" type="curve" smooth="yes"/>
			<point x="458" y="419"/>
			<point x="493" y="378"/>
			<point x="493" y="302" type="curve" smooth="yes"/>
			<point x="493" y="242" type="line" smooth="yes"/>
			<point x="493" y="168"/>
			<point x="459" y="103"/>
			<point x="401" y="72" type="curve"/>
			<point x="352" y="114"/>
			<point x="326" y="173"/>
			<point x="326" y="242" type="curve" smooth="yes"/>
		</contour>
	</outline>
</glyph>
<glyph name="uni04AA" format="2">
	<advance width="562"/>
	<outline>
		<contour>
			<point x="271" y="-150" type="line"/>
			<point x="345" y="-150" type="line"/>
			<point x="345" y="-9" type="line"/>
			<point x="427" y="2"/>
			<point x="492" y="56"/>
			<point x="529" y="147" type="curve"/>
			<point x="464" y="187" type="line"/>
			<point x="439" y="109"/>
			<point x="385" y="60"/>
			<point x="307" y="60" type="curve" smooth="yes"/>
			<point x="201" y="60"/>
			<point x="138" y="149"/>
			<point x="138" y="295" type="curve" smooth="yes"/>
			<point x="138" y="396" type="line" smooth="yes"/>
			<point x="138" y="542"/>
			<point x="201" y="638"/>
			<point x="307" y="638" type="curve" smooth="yes"/>
			<point x="383" y="638"/>
			<point x="434" y="591"/>
			<point x="459" y="518" type="curve"/>
			<point x="525" y="558" type="line"/>
			<point x="484" y="654"/>
			<point x="412" y="710"/>
			<point x="307" y="710" type="curve" smooth="yes"/>
			<point x="148" y="710"/>
			<point x="52" y="579"/>
			<point x="52" y="345" type="curve" smooth="yes"/>
			<point x="52" y="129"/>
			<point x="133" y="5"/>
			<point x="271" y="-10" type="curve"/>
		</contour>
	</outline>
</glyph>
<glyph name="uni04AB" format="2">
	<advance width="453"/>
	<outline>
		<contour>
			<point x="215" y="-140" type="line"/>
			<point x="285" y="-140" type="line"/>
			<point x="285" y="-9" type="line"/>
			<point x="351" y="0"/>
			<point x="401" y="42"/>
			<point x="428" y="109" type="curve"/>
			<point x="372" y="146" type="line"/>
			<point x="347" y="86"/>
			<point x="306" y="56"/>
			<point x="249" y="56" type="curve" smooth="yes"/>
			<point x="166" y="56"/>
			<point x="123" y="123"/>
			<point x="123" y="215" type="curve" smooth="yes"/>
			<point x="123" y="301" type="line" smooth="yes"/>
			<point x="123" y="392"/>
			<point x="166" y="459"/>
			<point x="249" y="459" type="curve" smooth="yes"/>
			<point x="303" y="459"/>
			<point x="343" y="430"/>
			<point x="360" y="375" type="curve"/>
			<point x="424" y="408" type="line"/>
			<point x="397" y="478"/>
			<point x="341" y="527"/>
			<point x="249" y="527" type="curve" smooth="yes"/>
			<point x="118" y="527"/>
			<point x="41" y="423"/>
			<point x="41" y="258" type="curve" smooth="yes"/>
			<point x="41" y="107"/>
			<point x="104" y="5"/>
			<point x="215" y="-9" type="curve"/>
		</contour>
	</outline>
</glyph>
<glyph name="uni04AC" format="2">
	<advance width="515"/>
	<outline>
		<contour>
			<point x="495" y="627" type="line"/>
			<point x="495" y="698" type="line"/>
			<point x="20" y="698" type="line"/>
			<point x="20" y="627" type="line"/>
			<point x="217" y="627" type="line"/>
			<point x="217" y="0" type="line"/>
			<point x="313" y="0" type="line"/>
			<point x="313" y="-150" type="line"/>
			<point x="387" y="-150" type="line"/>
			<point x="387" y="71" type="line"/>
			<point x="298" y="71" type="line"/>
			<point x="298" y="627" type="line"/>
		</contour>
	</outline>
</glyph>
<glyph name="uni04AD" format="2">
	<advance width="426"/>
	<outline>
		<contour>
			<point x="175" y="0" type="line"/>
			<point x="259" y="0" type="line"/>
			<point x="259" y="-140" type="line"/>
			<point x="329" y="-140" type="line"/>
			<point x="329" y="67" type="line"/>
			<point x="252" y="67" type="line"/>
			<point x="252" y="448" type="line"/>
			<point x="408" y="448" type="line"/>
			<point x="408" y="515" type="line"/>
			<point x="18" y="515" type="line"/>
			<point x="18" y="448" type="line"/>
			<point x="175" y="448" type="line"/>
		</contour>
	</outline>
</glyph>
<glyph name="uni04AF" format="2">
	<advance width="447"/>
	<outline>
		<contour>
			<point x="185" y="-200" type="line"/>
			<point x="262" y="-200" type="line"/>
			<point x="262" y="0" type="line"/>
			<point x="431" y="515" type="line"/>
			<point x="357" y="515" type="line"/>
			<point x="275" y="252" type="line"/>
			<point x="230" y="90" type="line"/>
			<point x="220" y="90" type="line"/>
			<point x="175" y="252" type="line"/>
			<point x="93" y="515" type="line"/>
			<point x="16" y="515" type="line"/>
			<point x="185" y="0" type="line"/>
		</contour>
	</outline>
</glyph>
<glyph name="uni04B0" format="2">
	<advance width="537"/>
	<outline>
		<contour>
			<point x="227" y="0" type="line"/>
			<point x="308" y="0" type="line" name="hr00"/>
			<point x="308" y="215" type="line"/>
			<point x="453" y="215" type="line"/>
			<point x="453" y="277" type="line"/>
			<point x="308" y="277" type="line"/>
			<point x="526" y="698" type="line"/>
			<point x="435" y="698" type="line"/>
			<point x="274" y="366" type="line"/>
			<point x="264" y="366" type="line"/>
			<point x="103" y="698" type="line"/>
			<point x="11" y="698" type="line"/>
			<point x="227" y="277" type="line"/>
			<point x="80" y="277" type="line"/>
			<point x="80" y="215" type="line"/>
			<point x="227" y="215" type="line"/>
		</contour>
	</outline>
</glyph>
<glyph name="uni04B2" format="2">
	<advance width="583"/>
	<outline>
		<contour>
			<point x="504" y="-150" type="line"/>
			<point x="578" y="-150" type="line"/>
			<point x="578" y="71" type="line"/>
			<point x="492" y="71" type="line"/>
			<point x="327" y="358" type="line" name="hr00"/>
			<point x="529" y="698" type="line"/>
			<point x="440" y="698" type="line"/>
			<point x="283" y="424" type="line"/>
			<point x="273" y="424" type="line"/>
			<point x="121" y="698" type="line"/>
			<point x="28" y="698" type="line"/>
			<point x="227" y="355" type="line"/>
			<point x="21" y="0" type="line"/>
			<point x="109" y="0" type="line"/>
			<point x="270" y="288" type="line"/>
			<point x="280" y="288" type="line"/>
			<point x="440" y="0" type="line"/>
			<point x="504" y="0" type="line"/>
		</contour>
	</outline>
</glyph>
<glyph name="uni04B3" format="2">
	<advance width="481"/>
	<outline>
		<contour>
			<point x="404" y="-140" type="line"/>
			<point x="474" y="-140" type="line"/>
			<point x="474" y="67" type="line"/>
			<point x="400" y="67" type="line"/>
			<point x="275" y="265" type="line"/>
			<point x="438" y="516" type="line"/>
			<point x="353" y="516" type="line"/>
			<point x="237" y="328" type="line"/>
			<point x="227" y="328" type="line"/>
			<point x="112" y="516" type="line"/>
			<point x="26" y="516" type="line"/>
			<point x="189" y="263" type="line"/>
			<point x="19" y="0" type="line"/>
			<point x="102" y="0" type="line" name="hr00"/>
			<point x="227" y="202" type="line"/>
			<point x="237" y="202" type="line"/>
			<point x="356" y="0" type="line"/>
			<point x="404" y="0" type="line"/>
		</contour>
	</outline>
</glyph>
<glyph name="uni04B4" format="2">
	<advance width="786"/>
	<outline>
		<contour>
			<point x="683" y="-150" type="line"/>
			<point x="758" y="-150" type="line"/>
			<point x="758" y="71" type="line"/>
			<point x="668" y="71" type="line"/>
			<point x="668" y="698" type="line"/>
			<point x="588" y="698" type="line"/>
			<point x="588" y="71" type="line"/>
			<point x="288" y="71" type="line"/>
			<point x="288" y="627" type="line"/>
			<point x="476" y="627" type="line"/>
			<point x="476" y="698" type="line"/>
			<point x="20" y="698" type="line"/>
			<point x="20" y="627" type="line"/>
			<point x="208" y="627" type="line"/>
			<point x="208" y="0" type="line"/>
			<point x="683" y="0" type="line"/>
		</contour>
	</outline>
</glyph>
<glyph name="uni04B5" format="2">
	<advance width="642"/>
	<outline>
		<contour>
			<point x="549" y="-140" type="line"/>
			<point x="619" y="-140" type="line"/>
			<point x="619" y="67" type="line"/>
			<point x="541" y="67" type="line"/>
			<point x="541" y="515" type="line"/>
			<point x="464" y="515" type="line"/>
			<point x="464" y="67" type="line"/>
			<point x="242" y="67" type="line"/>
			<point x="242" y="448" type="line"/>
			<point x="388" y="448" type="line"/>
			<point x="388" y="515" type="line"/>
			<point x="18" y="515" type="line"/>
			<point x="18" y="448" type="line"/>
			<point x="165" y="448" type="line"/>
			<point x="165" y="0" type="line"/>
			<point x="549" y="0" type="line"/>
		</contour>
	</outline>
</glyph>
<glyph name="uni04B6" format="2">
	<advance width="618"/>
	<outline>
		<contour>
			<point x="516" y="-150" type="line"/>
			<point x="590" y="-150" type="line"/>
			<point x="590" y="71" type="line"/>
			<point x="500" y="71" type="line"/>
			<point x="500" y="698" type="line"/>
			<point x="420" y="698" type="line"/>
			<point x="420" y="348" type="line"/>
			<point x="388" y="333"/>
			<point x="339" y="325"/>
			<point x="282" y="325" type="curve" smooth="yes"/>
			<point x="183" y="325"/>
			<point x="133" y="377"/>
			<point x="133" y="500" type="curve" smooth="yes"/>
			<point x="133" y="698" type="line"/>
			<point x="52" y="698" type="line"/>
			<point x="52" y="500" type="line" smooth="yes"/>
			<point x="52" y="333"/>
			<point x="124" y="253"/>
			<point x="278" y="253" type="curve" smooth="yes"/>
			<point x="332" y="253"/>
			<point x="383" y="262"/>
			<point x="415" y="277" type="curve"/>
			<point x="420" y="277" type="line"/>
			<point x="420" y="0" type="line"/>
			<point x="516" y="0" type="line"/>
		</contour>
	</outline>
</glyph>
<glyph name="uni04B8" format="2">
	<advance width="585"/>
	<outline>
		<contour>
			<point x="421" y="0" type="line"/>
			<point x="502" y="0" type="line"/>
			<point x="502" y="698" type="line"/>
			<point x="421" y="698" type="line"/>
			<point x="421" y="348" type="line"/>
			<point x="397" y="337"/>
			<point x="361" y="327"/>
			<point x="309" y="325" type="curve"/>
			<point x="309" y="492" type="line"/>
			<point x="248" y="492" type="line"/>
			<point x="248" y="326" type="line"/>
			<point x="171" y="337"/>
			<point x="133" y="391"/>
			<point x="133" y="500" type="curve" smooth="yes"/>
			<point x="133" y="698" type="line"/>
			<point x="52" y="698" type="line"/>
			<point x="52" y="500" type="line" smooth="yes"/>
			<point x="52" y="345"/>
			<point x="114" y="265"/>
			<point x="248" y="254" type="curve"/>
			<point x="248" y="112" type="line"/>
			<point x="309" y="112" type="line"/>
			<point x="309" y="253" type="line"/>
			<point x="351" y="256"/>
			<point x="389" y="264"/>
			<point x="417" y="277" type="curve"/>
			<point x="421" y="277" type="line"/>
		</contour>
	</outline>
</glyph>
<glyph name="uni04B9" format="2">
	<advance width="488"/>
	<outline>
		<contour>
			<point x="336" y="0" type="line"/>
			<point x="413" y="0" type="line"/>
			<point x="413" y="515" type="line"/>
			<point x="336" y="515" type="line"/>
			<point x="336" y="312" type="line" smooth="yes"/>
			<point x="336" y="276"/>
			<point x="304" y="250"/>
			<point x="258" y="246" type="curve"/>
			<point x="258" y="391" type="line"/>
			<point x="201" y="391" type="line"/>
			<point x="201" y="246" type="line"/>
			<point x="148" y="251"/>
			<point x="122" y="283"/>
			<point x="122" y="342" type="curve" smooth="yes"/>
			<point x="122" y="515" type="line"/>
			<point x="45" y="515" type="line"/>
			<point x="45" y="335" type="line" smooth="yes"/>
			<point x="45" y="229"/>
			<point x="99" y="176"/>
			<point x="201" y="176" type="curve"/>
			<point x="201" y="89" type="line"/>
			<point x="258" y="89" type="line"/>
			<point x="258" y="182" type="line"/>
			<point x="285" y="189"/>
			<point x="313" y="210"/>
			<point x="324" y="237" type="curve"/>
			<point x="336" y="237" type="line"/>
		</contour>
	</outline>
</glyph>
<glyph name="uni04BA" format="2">
	<advance width="583"/>
	<outline>
		<contour>
			<point x="83" y="0" type="line"/>
			<point x="164" y="0" type="line"/>
			<point x="164" y="350" type="line"/>
			<point x="194" y="364"/>
			<point x="240" y="373"/>
			<point x="302" y="373" type="curve" smooth="yes"/>
			<point x="401" y="373"/>
			<point x="451" y="321"/>
			<point x="451" y="198" type="curve" smooth="yes"/>
			<point x="451" y="0" type="line"/>
			<point x="531" y="0" type="line"/>
			<point x="531" y="198" type="line" smooth="yes"/>
			<point x="531" y="365"/>
			<point x="460" y="445"/>
			<point x="305" y="445" type="curve" smooth="yes"/>
			<point x="253" y="445"/>
			<point x="200" y="436"/>
			<point x="168" y="421" type="curve"/>
			<point x="164" y="421" type="line"/>
			<point x="164" y="698" type="line"/>
			<point x="83" y="698" type="line"/>
		</contour>
	</outline>
</glyph>
<glyph name="uni04BC" format="2">
	<advance width="724"/>
	<outline>
		<contour>
			<point x="689" y="349" type="line"/>
			<point x="689" y="589"/>
			<point x="588" y="710"/>
			<point x="423" y="710" type="curve" smooth="yes"/>
			<point x="269" y="710"/>
			<point x="171" y="593"/>
			<point x="157" y="395" type="curve"/>
			<point x="87" y="395" type="line"/>
			<point x="87" y="507" type="line"/>
			<point x="19" y="507" type="line"/>
			<point x="19" y="389" type="line" smooth="yes"/>
			<point x="19" y="355"/>
			<point x="32" y="328"/>
			<point x="79" y="328" type="curve" smooth="yes"/>
			<point x="155" y="328" type="line"/>
			<point x="162" y="115"/>
			<point x="264" y="-12"/>
			<point x="426" y="-12" type="curve" smooth="yes"/>
			<point x="544" y="-12"/>
			<point x="635" y="64"/>
			<point x="671" y="166" type="curve"/>
			<point x="603" y="199" type="line"/>
			<point x="572" y="113"/>
			<point x="507" y="60"/>
			<point x="427" y="60" type="curve" smooth="yes"/>
			<point x="319" y="60"/>
			<point x="240" y="150"/>
			<point x="240" y="299" type="curve" smooth="yes"/>
			<point x="240" y="345" type="line"/>
			<point x="200" y="328" type="line"/>
			<point x="689" y="328" type="line"/>
		</contour>
		<contour>
			<point x="423" y="638" type="curve"/>
			<point x="525" y="638"/>
			<point x="605" y="544"/>
			<point x="605" y="399" type="curve" smooth="yes"/>
			<point x="605" y="362" type="line"/>
			<point x="631" y="395" type="line"/>
			<point x="200" y="395" type="line"/>
			<point x="240" y="374" type="line"/>
			<point x="240" y="399" type="line" smooth="yes"/>
			<point x="240" y="544"/>
			<point x="321" y="638"/>
		</contour>
	</outline>
</glyph>
<glyph name="uni04BE" format="2">
	<advance width="724"/>
	<outline>
		<contour>
			<point x="689" y="349" type="line" smooth="yes"/>
			<point x="689" y="589"/>
			<point x="588" y="710"/>
			<point x="423" y="710" type="curve" smooth="yes"/>
			<point x="269" y="710"/>
			<point x="171" y="593"/>
			<point x="157" y="395" type="curve"/>
			<point x="87" y="395" type="line"/>
			<point x="87" y="507" type="line"/>
			<point x="19" y="507" type="line"/>
			<point x="19" y="389" type="line" smooth="yes"/>
			<point x="19" y="355"/>
			<point x="32" y="328"/>
			<point x="79" y="328" type="curve" smooth="yes"/>
			<point x="155" y="328" type="line"/>
			<point x="161" y="129"/>
			<point x="249" y="7"/>
			<point x="389" y="-10" type="curve"/>
			<point x="389" y="-150" type="line"/>
			<point x="463" y="-150" type="line"/>
			<point x="463" y="-10" type="line"/>
			<point x="565" y="4"/>
			<point x="639" y="75"/>
			<point x="671" y="166" type="curve"/>
			<point x="603" y="199" type="line"/>
			<point x="572" y="113"/>
			<point x="507" y="60"/>
			<point x="427" y="60" type="curve" smooth="yes"/>
			<point x="319" y="60"/>
			<point x="240" y="150"/>
			<point x="240" y="299" type="curve" smooth="yes"/>
			<point x="240" y="356" type="line"/>
			<point x="200" y="328" type="line"/>
			<point x="689" y="328" type="line"/>
		</contour>
		<contour>
			<point x="423" y="638" type="curve"/>
			<point x="525" y="638"/>
			<point x="605" y="544"/>
			<point x="605" y="399" type="curve" smooth="yes"/>
			<point x="605" y="362" type="line"/>
			<point x="631" y="395" type="line"/>
			<point x="200" y="395" type="line"/>
			<point x="240" y="374" type="line"/>
			<point x="240" y="399" type="line" smooth="yes"/>
			<point x="240" y="544"/>
			<point x="321" y="638"/>
		</contour>
	</outline>
</glyph>
<glyph name="uni04BF" format="2">
	<advance width="585"/>
	<outline>
		<contour>
			<point x="386" y="-10" type="line"/>
			<point x="455" y="0"/>
			<point x="508" y="45"/>
			<point x="535" y="107" type="curve"/>
			<point x="482" y="146" type="line"/>
			<point x="458" y="88"/>
			<point x="413" y="55"/>
			<point x="356" y="55" type="curve" smooth="yes"/>
			<point x="271" y="55"/>
			<point x="221" y="123"/>
			<point x="221" y="215" type="curve" smooth="yes"/>
			<point x="221" y="239" type="line"/>
			<point x="552" y="239" type="line"/>
			<point x="552" y="275" type="line" smooth="yes"/>
			<point x="552" y="422"/>
			<point x="476" y="527"/>
			<point x="350" y="527" type="curve" smooth="yes"/>
			<point x="236" y="527"/>
			<point x="155" y="442"/>
			<point x="142" y="297" type="curve"/>
			<point x="89" y="297" type="line"/>
			<point x="89" y="408" type="line"/>
			<point x="22" y="408" type="line"/>
			<point x="22" y="300" type="line" smooth="yes"/>
			<point x="22" y="265"/>
			<point x="35" y="239"/>
			<point x="79" y="239" type="curve" smooth="yes"/>
			<point x="140" y="239" type="line"/>
			<point x="146" y="101"/>
			<point x="212" y="6"/>
			<point x="316" y="-10" type="curve"/>
			<point x="316" y="-140" type="line"/>
			<point x="386" y="-140" type="line"/>
		</contour>
		<contour>
			<point x="350" y="463" type="curve" smooth="yes"/>
			<point x="422" y="463"/>
			<point x="470" y="400"/>
			<point x="470" y="307" type="curve" smooth="yes"/>
			<point x="470" y="297" type="line"/>
			<point x="221" y="297" type="line"/>
			<point x="221" y="304" type="line" smooth="yes"/>
			<point x="221" y="396"/>
			<point x="274" y="463"/>
		</contour>
	</outline>
</glyph>
<glyph name="uni04E0" format="2">
	<advance width="534"/>
	<outline>
		<contour>
			<point x="253" y="-12" type="curve" smooth="yes"/>
			<point x="395" y="-12"/>
			<point x="480" y="69"/>
			<point x="480" y="214" type="curve" smooth="yes"/>
			<point x="480" y="358"/>
			<point x="376" y="413"/>
			<point x="261" y="413" type="curve" smooth="yes"/>
			<point x="233" y="413" type="line"/>
			<point x="263" y="390" type="line"/>
			<point x="263" y="421" type="line"/>
			<point x="452" y="601" type="line"/>
			<point x="452" y="698" type="line"/>
			<point x="71" y="698" type="line"/>
			<point x="71" y="627" type="line"/>
			<point x="281" y="627" type="line"/>
			<point x="374" y="635" type="line"/>
			<point x="374" y="625" type="line"/>
			<point x="156" y="420" type="line"/>
			<point x="156" y="349" type="line"/>
			<point x="252" y="349" type="line" smooth="yes"/>
			<point x="337" y="349"/>
			<point x="394" y="304"/>
			<point x="394" y="219" type="curve" smooth="yes"/>
			<point x="394" y="192" type="line" smooth="yes"/>
			<point x="394" y="109"/>
			<point x="342" y="60"/>
			<point x="253" y="60" type="curve" smooth="yes"/>
			<point x="179" y="60"/>
			<point x="129" y="96"/>
			<point x="91" y="159" type="curve"/>
			<point x="33" y="112" type="line"/>
			<point x="81" y="36"/>
			<point x="152" y="-12"/>
		</contour>
	</outline>
</glyph>
<glyph name="uni04E1" format="2">
	<advance width="450"/>
	<outline>
		<contour>
			<point x="205" y="-200" type="curve" smooth="yes"/>
			<point x="326" y="-200"/>
			<point x="400" y="-111"/>
			<point x="400" y="15" type="curve" smooth="yes"/>
			<point x="400" y="138"/>
			<point x="327" y="213"/>
			<point x="206" y="213" type="curve" smooth="yes"/>
			<point x="174" y="213" type="line"/>
			<point x="207" y="175" type="line"/>
			<point x="207" y="222" type="line"/>
			<point x="372" y="447" type="line"/>
			<point x="372" y="515" type="line"/>
			<point x="60" y="515" type="line"/>
			<point x="60" y="448" type="line"/>
			<point x="224" y="448" type="line"/>
			<point x="289" y="456" type="line"/>
			<point x="289" y="446" type="line"/>
			<point x="120" y="217" type="line"/>
			<point x="120" y="152" type="line"/>
			<point x="196" y="152" type="line" smooth="yes"/>
			<point x="275" y="152"/>
			<point x="318" y="103"/>
			<point x="318" y="28" type="curve" smooth="yes"/>
			<point x="318" y="-3" type="line" smooth="yes"/>
			<point x="318" y="-78"/>
			<point x="278" y="-132"/>
			<point x="205" y="-132" type="curve" smooth="yes"/>
			<point x="148" y="-132"/>
			<point x="104" y="-102"/>
			<point x="80" y="-47" type="curve"/>
			<point x="23" y="-92" type="line"/>
			<point x="61" y="-162"/>
			<point x="116" y="-200"/>
		</contour>
	</outline>
</glyph>
<glyph name="uni04E8" format="2">
	<advance width="638"/>
	<anchor x="319" y="0" name="bottom"/>
	<anchor x="319" y="698" name="top"/>
	<outline>
		<contour>
			<point x="319" y="-12" type="curve" smooth="yes"/>
			<point x="482" y="-12"/>
			<point x="586" y="116"/>
			<point x="586" y="349" type="curve" smooth="yes"/>
			<point x="586" y="582"/>
			<point x="482" y="710"/>
			<point x="319" y="710" type="curve" smooth="yes"/>
			<point x="157" y="710"/>
			<point x="52" y="583"/>
			<point x="52" y="349" type="curve" smooth="yes"/>
			<point x="52" y="115"/>
			<point x="157" y="-12"/>
		</contour>
		<contour>
			<point x="319" y="60" type="curve" smooth="yes"/>
			<point x="212" y="60"/>
			<point x="137" y="152"/>
			<point x="137" y="293" type="curve" smooth="yes"/>
			<point x="137" y="342" type="line"/>
			<point x="97" y="317" type="line"/>
			<point x="541" y="317" type="line"/>
			<point x="501" y="342" type="line"/>
			<point x="501" y="293" type="line" smooth="yes"/>
			<point x="501" y="151"/>
			<point x="426" y="60"/>
		</contour>
		<contour>
			<point x="319" y="638" type="curve" smooth="yes"/>
			<point x="426" y="638"/>
			<point x="501" y="547"/>
			<point x="501" y="405" type="curve" smooth="yes"/>
			<point x="501" y="365" type="line"/>
			<point x="541" y="389" type="line"/>
			<point x="97" y="389" type="line"/>
			<point x="137" y="373" type="line"/>
			<point x="137" y="405" type="line" smooth="yes"/>
			<point x="137" y="546"/>
			<point x="212" y="638"/>
		</contour>
	</outline>
</glyph>
<glyph name="uni04E9" format="2">
	<advance width="503"/>
	<anchor x="252" y="0" name="bottom"/>
	<anchor x="252" y="540" name="top"/>
	<outline>
		<contour>
			<point x="252" y="-12" type="curve" smooth="yes"/>
			<point x="377" y="-12"/>
			<point x="462" y="94"/>
			<point x="462" y="258" type="curve" smooth="yes"/>
			<point x="462" y="422"/>
			<point x="377" y="527"/>
			<point x="252" y="527" type="curve" smooth="yes"/>
			<point x="126" y="527"/>
			<point x="41" y="422"/>
			<point x="41" y="258" type="curve" smooth="yes"/>
			<point x="41" y="93"/>
			<point x="127" y="-12"/>
		</contour>
		<contour>
			<point x="252" y="56" type="curve" smooth="yes"/>
			<point x="176" y="56"/>
			<point x="123" y="111"/>
			<point x="123" y="221" type="curve" smooth="yes"/>
			<point x="123" y="232" type="line"/>
			<point x="381" y="232" type="line"/>
			<point x="381" y="221" type="line" smooth="yes"/>
			<point x="381" y="111"/>
			<point x="327" y="56"/>
		</contour>
		<contour>
			<point x="123" y="294" type="line" smooth="yes"/>
			<point x="123" y="404"/>
			<point x="175" y="459"/>
			<point x="252" y="459" type="curve" smooth="yes"/>
			<point x="327" y="459"/>
			<point x="380" y="405"/>
			<point x="381" y="294" type="curve" smooth="yes"/>
			<point x="381" y="292" type="line"/>
			<point x="123" y="292" type="line"/>
		</contour>
	</outline>
</glyph>
<glyph name="uni04F7" format="2">
	<advance width="392"/>
	<outline>
		<contour>
			<point x="75" y="0" type="line"/>
			<point x="160" y="0" type="line"/>
			<point x="160" y="-140" type="line"/>
			<point x="230" y="-140" type="line"/>
			<point x="230" y="67" type="line"/>
			<point x="152" y="67" type="line"/>
			<point x="152" y="448" type="line"/>
			<point x="371" y="448" type="line"/>
			<point x="371" y="515" type="line"/>
			<point x="75" y="515" type="line"/>
		</contour>
	</outline>
</glyph>
